<?xml version="1.0" encoding="utf-8"?>
<!-- Generator: Adobe Illustrator 23.0.1, SVG Export Plug-In . SVG Version: 6.00 Build 0)  -->
<svg version="1.1" xmlns="http://www.w3.org/2000/svg" xmlns:xlink="http://www.w3.org/1999/xlink" x="0px" y="0px"
	 viewBox="0 0 1109.3 534" style="enable-background:new 0 0 1109.3 534;" xml:space="preserve">
<style type="text/css">
	.st0{display:none;}
	.st1{display:inline;fill:none;stroke:#000000;stroke-width:0.25;stroke-miterlimit:10;}
	.st2{display:inline;stroke:#000000;stroke-width:0.5;stroke-miterlimit:10;}
	.st3{display:inline;stroke:#000000;stroke-width:0.25;stroke-miterlimit:10;}
	.st4{display:inline;fill:#E2E2E2;stroke:#000000;stroke-width:0.25;stroke-miterlimit:10;}
	.st5{display:inline;}
	.st6{fill:#CECECE;}
	.st7{fill:#A8A8A8;}
	.st8{fill:#C7E7F9;}
	.st9{fill:#AAAAAA;}
</style>
<g id="Layer_2" class="st0">
	
		<image style="display:inline;overflow:visible;" width="612" height="612" xlink:href="gettyimages-1193117676-612x612.jpg"  transform="matrix(0.24 0 0 0.24 540.33 233.67)">
	</image>
</g>
<g id="original" class="st0">
	<path class="st1" d="M413.7,262"/>
	<path class="st1" d="M416.4,264.9"/>
	<path class="st1" d="M412.5,260.5l-4.6-8.1l-5.5-9.4c0,0-0.9-3-1.1-6.7c-0.2-3.7,0-2.7,0-2.7l8.2-1.5c0,0,12.9-1.7,16,1.1l2-0.8
		c0,0,5.2-1.8,8.2,1.2c3,3,29.7,5.6,33.5,5c6.4-0.9,31.8-14.5,53.9,5.3c0,0-10.4-3-22.5,10.1c0,0-2,3,5.9,11.9
		c7.9,8.8,12.2,19.2,12.5,28.8l5.2,4.1c0,0-1.2,1.1-5.3,0c0,0,1.4,10.3-9.2,24.3c0,0-0.3,6.4-1.2,7.9c0,0-1.7-2.3-4.2-2.1
		c0,0-5,2.5-8.6,11.6c0,0-0.4,5.5,0.9,15c0,0-1.7,8.8-9.7,15c0,0-0.5-13-1.4-15.4c-1-2.8-3.3-9.9-6.7-12.7c0,0,2.7-0.8,3.3-1.6
		c0,0,0.9-0.6-5.8-0.2c0,0-16.6-10.3-30.7-13.4l-3.9,2l-10.3-4.6c0,0,6.8-7.7,24.6-5.2l24.9,7.9c0,0,12.8,2.9,12.5-6.4l-1.2-0.7
		l3.2-4.3c0,0,2-20.6-21.2-17.6c0,0-3.1-1.1-6.7,22.6c0,0-8.8-12.9-11-26.6l-1.8-1.2c-17.2,0.5-18.3-5.7-18.3-5.7l9.9-7.5
		C446.6,279.7,441.1,258.6,412.5,260.5z"/>
	<path class="st1" d="M416.9,264.3"/>
	<path class="st1" d="M441.4,295.8"/>
	<circle class="st2" cx="432.4" cy="241.3" r="2.3"/>
	<path class="st3" d="M455.6,243.5c0,0,8.1,8.1,3.7,27.2C459.3,270.7,459.8,250.5,455.6,243.5z"/>
	<path class="st3" d="M459.6,244c0,0,12,13.5,7.4,27.9C467.1,271.9,467.2,257.6,459.6,244z"/>
	<path class="st3" d="M467,246.9c0,0,12.2,15.8,5.5,25.1C472.4,271.9,472.4,255.9,467,246.9z"/>
	<path class="st3" d="M474.7,252.3c0,0,4.8,5.7,2.8,12.6C477.4,264.9,477.7,260.3,474.7,252.3z"/>
	<polygon class="st1" points="416.4,260.4 417.8,263.8 420.1,260.5 	"/>
	<path class="st1" d="M424.2,261.1"/>
	<polyline class="st1" points="421.6,260.7 422.5,265.6 426.7,261.6 	"/>
	<polyline class="st1" points="433.1,264.1 429.5,271.1 437.3,266.8 	"/>
	<polyline class="st1" points="437.6,267 432.8,275.1 442.5,272.1 	"/>
	<polyline class="st1" points="442.9,272.5 435.7,279.3 446.2,278.6 	"/>
	<polyline class="st1" points="427.4,261.9 426.3,267.9 432.7,263.9 	"/>
	<path class="st1" d="M412.4,260.5"/>
	<path class="st1" d="M436.7,287.2"/>
</g>
<g id="Copy_1" class="st0">
	<path class="st1" d="M429.1,272.7"/>
	<path class="st1" d="M449.9,252c0,1.2-1,2.3-2.3,2.3c-1.3,0-2.3-1-2.3-2.3c0-1.3,1-2.3,2.3-2.3C448.9,249.7,449.9,250.7,449.9,252z
		"/>
	<path class="st1" d="M470.9,254.3"/>
	<path class="st1" d="M474.6,281.4"/>
	<path class="st1" d="M482.3,257.6"/>
	<path class="st1" d="M487.7,282.6"/>
	<path class="st1" d="M490,263"/>
	<path class="st1" d="M492.8,275.6"/>
	<path class="st1" d="M456.7,306.5"/>
	<path class="st2" d="M449.9,252c0,1.2-1,2.3-2.3,2.3c-1.3,0-2.3-1-2.3-2.3c0-1.3,1-2.3,2.3-2.3C448.9,249.7,449.9,250.7,449.9,252z
		"/>
	<path class="st3" d="M474.6,281.4"/>
	<path class="st3" d="M482.3,257.6"/>
	<path class="st3" d="M487.7,282.6"/>
	<path class="st3" d="M490,263"/>
	<path class="st3" d="M492.8,275.6"/>
	<path class="st1" d="M427.8,271.2 M423.2,263.1 M417.7,253.6 M416.7,246.9 M534.4,305.3c-0.3-9.6-4.6-19.9-12.5-28.8
		c-7.9-8.8-5.9-11.9-5.9-11.9c12.2-13.1,22.5-10,22.5-10c-22.1-19.8-47.5-6.3-53.9-5.3c-3.8,0.5-30.5-2-33.5-5
		c-3-3.1-8.2-1.2-8.2-1.2l-2,0.8c-19.8-4.4-24.2,0.5-24.2,0.5s-3.8,8.5,11.1,27 M472.1,304.7c2.2,13.7,11,26.6,11,26.6
		c3.6-23.6,6.7-22.6,6.7-22.6c23.2-3,21.2,17.6,21.2,17.6l-3.2,4.3l1.2,0.7c0.3,9.3-12.5,6.4-12.5,6.4l-24.9-7.8
		c-17.8-2.5-24.6,5.2-24.6,5.2l10.3,4.6l3.9-2c14.1,3.1,30.7,13.4,30.7,13.4c6.8-0.4,5.8,0.2,5.8,0.2c-0.5,0.8-3.3,1.6-3.3,1.6
		c3.4,2.9,5.7,10,6.7,12.8c0.9,2.4,1.4,15.4,1.4,15.4c8-6.2,9.7-15,9.7-15c-1.3-9.5-0.9-15-0.9-15c3.6-9.1,8.6-11.6,8.6-11.6
		c2.5-0.2,4.2,2.1,4.2,2.1c0.9-1.5,1.2-7.9,1.2-7.9c10.5-14.1,9.3-28.4,9.3-28.4 M452,297.9c0,0,2.8,7,20,6.5 M452,297.9
		 M427.7,271.2c0,0,21.6-1.8,31,21.6c0,0,1.3,4.2-6.7,5.1 M453.8,290.2 M447.7,254.3c-1.3,0-2.3-1-2.3-2.3c0-1.3,1-2.3,2.3-2.3
		c1.2,0,2.3,1,2.3,2.3C449.9,253.2,448.9,254.3,447.7,254.3z M469,256.5 M475.7,281.4 M474.6,255.5 M482.4,282.6 M482.3,257.6
		 M487.7,282.6 M490,263 M492.8,275.6"/>
	<path class="st1" d="M427.7,271.2"/>
	<path class="st1" d="M452,297.9"/>
	<path class="st4" d="M499.5,286.7c1.8-13.9-14-21.5-14-21.5"/>
	<path class="st4" d="M495.4,267.9c0,0,9,6.2,8.2,14.6"/>
	<path class="st4" d="M501.3,269.6c0,0,4.5,2.3,4.7,7.1"/>
	<path class="st1" d="M429.6,271.2l0.2,1.6c0,0,2.3-1.4,3.4-1.2"/>
	<path class="st1" d="M434.4,271.7l-0.3,2.9c0,0,2.4-2.7,4.2-1.9"/>
	<path class="st1" d="M440.1,273.4l-1.2,3.6c0,0,3.2-2.8,4.5-2.1"/>
	<path class="st1" d="M444.6,275.6l-1.6,4c0,0,3.6-2.8,4.6-2"/>
	<path class="st1" d="M448.3,278.1l-2.4,4.5c0,0,3.2-2.9,5.4-1.7"/>
	<path class="st1" d="M451.8,281.4l-3.2,4.1c0,0,4.6-2.7,5.7-1"/>
	<path class="st1" d="M454.7,285.1l-4.1,4.2c0,0,4.2-2,6.1-0.9"/>
	<path class="st1" d="M457.1,289.3l-5.1,3.5c0,0,5.1-0.8,6.7,0.3"/>
	<path class="st1" d="M472.1,305.1c0,0-2.3-12,0-16.1"/>
	<path class="st4" d="M440.9,243.7c0,0-1.5,0.7-4.5,1"/>
	<path class="st1" d="M451.1,244.2c0,0,3,2.9,4.3,3.4"/>
	<path class="st1" d="M423.3,265.2"/>
</g>
<g id="Layer_1" class="st0">
	<g class="st5">
		<g>
			<path d="M470.2,104c1.9,0,1.9-3,0-3C468.3,101,468.3,104,470.2,104L470.2,104z"/>
		</g>
	</g>
	<g class="st5">
		<g>
			<path d="M560.6,11.2c-0.6,10.8-16.8,10.9-16.9,0C543.7,0.3,560,0.3,560.6,11.2c0.1,1.9,3.1,1.9,3,0c-0.3-6.2-4.9-11.4-11.4-11.4
				c-6.2,0-11.5,5.2-11.4,11.4c0,6,4.9,11.1,10.9,11.4c6.7,0.3,11.6-5,11.9-11.4C563.7,9.2,560.7,9.2,560.6,11.2z"/>
		</g>
	</g>
	<g class="st5">
		<g>
			<path d="M654.4,22.7c1.9,0,1.9-3,0-3C652.5,19.7,652.5,22.7,654.4,22.7L654.4,22.7z"/>
		</g>
	</g>
	<g class="st5">
		<g>
			<path d="M670.8,142.3c1.9,0,1.9-3,0-3C668.9,139.3,668.8,142.3,670.8,142.3L670.8,142.3z"/>
		</g>
	</g>
	<g class="st5">
		<g>
			<path d="M704.5,37.3c1.9,0,1.9-3,0-3C702.6,34.3,702.6,37.3,704.5,37.3L704.5,37.3z"/>
		</g>
	</g>
	<g class="st5">
		<g>
			<path d="M728.5,147.5c1.9,0,1.9-3,0-3C726.6,144.5,726.6,147.5,728.5,147.5L728.5,147.5z"/>
		</g>
	</g>
	<g class="st5">
		<g>
			<path d="M738.4,61.1c1.9,0,1.9-3,0-3C736.5,58.1,736.5,61.1,738.4,61.1L738.4,61.1z"/>
		</g>
	</g>
	<g class="st5">
		<g>
			<path d="M750.6,116.4c1.9,0,1.9-3,0-3C748.7,113.4,748.7,116.4,750.6,116.4L750.6,116.4z"/>
		</g>
	</g>
	<g class="st5">
		<g>
			<path d="M591.8,252.7c1.9,0,1.9-3,0-3C589.9,249.7,589.9,252.7,591.8,252.7L591.8,252.7z"/>
		</g>
	</g>
	<g class="st5">
		<path d="M562.1,11.2c0,5.5-4.4,9.9-9.9,9.9c-5.5,0-9.9-4.5-9.9-9.9c0-5.5,4.4-9.9,9.9-9.9C557.7,1.2,562.1,5.7,562.1,11.2z"/>
		<g>
			<path d="M560.6,11.2c-0.6,10.8-16.8,10.9-16.9,0C543.7,0.3,560,0.3,560.6,11.2c0.1,1.9,3.1,1.9,3,0c-0.3-6.2-4.9-11.4-11.4-11.4
				c-6.2,0-11.5,5.2-11.4,11.4c0,6,4.9,11.1,10.9,11.4c6.7,0.3,11.6-5,11.9-11.4C563.7,9.2,560.7,9.2,560.6,11.2z"/>
		</g>
	</g>
	<g class="st5">
		<path d="M670.8,140.8"/>
		<g>
			<path d="M670.8,142.3c1.9,0,1.9-3,0-3C668.9,139.3,668.8,142.3,670.8,142.3L670.8,142.3z"/>
		</g>
	</g>
	<g class="st5">
		<path d="M704.5,35.8"/>
		<g>
			<path d="M704.5,37.3c1.9,0,1.9-3,0-3C702.6,34.3,702.6,37.3,704.5,37.3L704.5,37.3z"/>
		</g>
	</g>
	<g class="st5">
		<path d="M728.5,146"/>
		<g>
			<path d="M728.5,147.5c1.9,0,1.9-3,0-3C726.6,144.5,726.6,147.5,728.5,147.5L728.5,147.5z"/>
		</g>
	</g>
	<g class="st5">
		<path d="M738.4,59.6"/>
		<g>
			<path d="M738.4,61.1c1.9,0,1.9-3,0-3C736.5,58.1,736.5,61.1,738.4,61.1L738.4,61.1z"/>
		</g>
	</g>
	<g class="st5">
		<path d="M750.6,114.9"/>
		<g>
			<path d="M750.6,116.4c1.9,0,1.9-3,0-3C748.7,113.4,748.7,116.4,750.6,116.4L750.6,116.4z"/>
		</g>
	</g>
	<g class="st5">
		<g>
			<path d="M661.2,243.8c0-0.1-0.1-0.8,0-0.4c-0.1-0.8-0.6-1.5-1.5-1.5c-0.8,0-1.6,0.7-1.5,1.5c0,0.1,0.1,0.8,0,0.4
				c0.1,0.8,0.6,1.5,1.5,1.5C660.4,245.2,661.3,244.6,661.2,243.8L661.2,243.8z"/>
			<path d="M659.3,240.2C659.3,240.2,659.3,240.2,659.3,240.2c-0.8,0-1.6,0.7-1.5,1.5c0,0.8,0.7,1.5,1.5,1.5c0,0,0,0,0,0
				c0.8,0,1.5-0.7,1.5-1.5C660.8,240.9,660.2,240.2,659.3,240.2L659.3,240.2z"/>
		</g>
	</g>
	<g class="st5">
		<path class="st6" d="M952.1,22.5C854.9-64.7,742.9-5,714.7-1c-16.4,2.3-130.8-8.4-146.8-21.6c-0.4-0.4-0.6-0.6-0.6-0.6
			c-13.4-13.4-36.2-5.4-36.2-5.4l-8.7,3.3c-87.2-19.1-106.6,2-106.6,2s-16.9,37.3,48.7,118.8c0,0,9.6-0.8,23.9,1.5
			c1.8,0.3,3.6,0.6,5.5,1c5,1,10.4,2.3,16.2,4.1c0.4,0.1,0.7,0.2,1,0.3c2.6,0.8,5.2,1.8,7.8,2.8c4.7,1.8,9.5,4,14.4,6.6
			c1.8,0.9,3.6,1.9,5.3,3c4.4,2.6,8.7,5.5,13,8.8c0,0,0,0,0.1,0c1.1,0.8,2.1,1.6,3.1,2.5c4.4,3.6,8.9,7.6,13.2,12.1
			c0.7,0.8,1.5,1.6,2.2,2.4c3.6,3.9,7,8.1,10.3,12.7v0c0.8,1.1,1.7,2.3,2.5,3.5c3.1,4.6,6.1,9.5,8.9,14.7c0.7,1.2,1.3,2.5,2,3.7
			c2.4,4.8,4.7,9.9,6.9,15.3c0,0,0.2,0.6,0.3,1.5c0.5,4.5-0.7,17.6-29.5,20.8c0,0,12.2,30.9,87.9,28.6c0.2,0.8,0.3,1.5,0.4,2
			c0,0.4,0.1,0.6,0.1,0.8c0,0.2,0,0.3,0,0.3c10,59.8,48.2,115.8,48.2,115.8c15.9-104.1,29.4-99.4,29.4-99.4
			c102.3-13.3,93.4,77.5,93.4,77.5l-14.1,18.8l5.3,3.2c1.1,40.8-55.2,28.1-55.2,28.1l-109.6-34.6c-78.3-10.9-108.2,23-108.2,23
			l45.3,20.4l17.1-9c61.9,13.5,135,58.9,135,58.9c29.9-1.8,25.7,0.8,25.7,0.8c-2.4,3.5-14.5,6.9-14.5,6.9
			c14.8,12.7,24.9,43.9,29.4,56.1c3.9,10.6,6.3,67.8,6.3,67.8c35.2-27.2,42.6-65.9,42.6-65.9c-5.8-41.9-4.2-66.1-4.2-66.1
			c15.8-39.9,37.9-51,37.9-51c10.9-0.8,18.3,9.3,18.3,9.3c3.9-6.6,5.2-34.7,5.2-34.7c46.3-61.9,40.7-125.1,40.7-125.1
			c-1.4-42.2-20.1-87.8-55-126.7c-34.9-38.9-26.1-52.3-26.1-52.3C906.5,9.1,952.1,22.5,952.1,22.5z M552.2,21.1
			c-5.5,0-9.9-4.5-9.9-9.9c0-5.5,4.4-9.9,9.9-9.9c5.5,0,9.9,4.4,9.9,9.9C562.1,16.6,557.7,21.1,552.2,21.1z"/>
		<g>
			<path d="M953.1,21.4c-33.2-29.5-74.4-46.6-118.9-47.5c-32.8-0.7-64.7,7-95.8,16.9C730.2-6.7,721.6-3,713-2.3
				c-10.3,0.9-21.1-0.3-31.4-1.1c-31.1-2.3-62.8-5.5-93.2-13c-5.1-1.3-10.3-2.6-15.1-4.8c-5.4-2.4-9-7-14.6-9.1
				c-11.6-4.4-23.5-1.4-34.6,2.8c-4.2,1.6-9.3-0.8-13.6-1.6c-6.4-1.2-12.8-2.3-19.3-3.2c-9.5-1.3-19.1-2.2-28.8-2.4
				c-11.8-0.2-24,0.4-35.3,4c-3.9,1.2-9.3,2.9-12.1,6.1c-1.3,1.5-1.6,3.6-2,5.5c-3.9,20.5,4.9,42.7,13.8,60.6
				c4.7,9.4,10.1,18.5,15.9,27.3c3.5,5.3,7.2,10.5,11,15.5c1.6,2.1,3.2,4.2,4.8,6.3c1.4,1.8,3.3,5.7,5.5,6.5
				c1.5,0.6,4.3-0.1,5.9-0.1c6.1,0.1,12.1,0.6,18.1,1.5c12.5,1.9,24.8,5.5,36.4,10.7c11,4.9,21.3,11.4,30.6,19.1
				c9.2,7.6,18.9,17,25,27.1c6.7,11.2,13.7,21.7,18.5,34c1.7,4.3,1,8.5-1.9,12.2c-5.8,7.1-16.6,9-25.2,10c-0.9,0.1-1.9,0.9-1.4,1.9
				c2.8,6.9,9.9,12.2,15.9,15.9c21.5,13,49,14.5,73.4,13.8c-0.5-0.4-1-0.7-1.4-1.1c7.9,42.2,24.7,83.6,48.9,119.2
				c0.6,0.9,2.5,1,2.7-0.4c3-19.4,6.3-38.7,10.9-57.8c2.4-10,5.1-20.2,9.2-29.6c1.5-3.4,3.3-7.7,6.3-10.2c0.7-0.6,1.6-0.8,1.2-0.8
				c25.1-3.9,55.1-1.1,73.7,18.1c11.5,11.9,17.1,28.4,18.5,44.7c0.3,3.9,1.1,8.9,0.2,12.9c-0.2,1,0.6-1-0.3,0.3
				c-1.4,1.9-2.8,3.8-4.3,5.7c-3.1,4.2-6.3,8.3-9.4,12.5c-0.5,0.7-0.1,1.7,0.5,2.1c0.9,0.5,1.8,1.1,2.6,1.6c0.5,0.3,1.4,0.7,1.8,1.1
				c0.7,0.8,0.1,0.3,0.1,0.4c0.7,3-0.6,7.6-1.7,10.5c-2.1,5.7-6.4,10-11.8,12.7c-9.4,4.6-20.8,4.7-31,3.7c-11.8-1.2-23-5.8-34.2-9.3
				c-23.4-7.4-46.7-14.7-70.1-22.1c-5.2-1.6-10.6-4-16-4.7c-19.2-2.7-39.1-2.9-58.2,0.6c-16.8,3.1-37.8,9.6-49.7,23
				c-0.6,0.6-0.6,1.9,0.3,2.4c12.9,5.8,25.8,11.6,38.8,17.5c2,0.9,4.1,2.3,6.2,2.8c1.7,0.5,2.4-0.1,4.1-1c3.8-2,7.6-4,11.3-6
				c0.8-0.4,2.5-1.7,3.4-1.8c0.5,0,2.4,0.8,3.3,1.1c1.9,0.5,3.9,1,5.8,1.5c27.9,7.4,54.6,19,80.3,31.9c9.7,4.9,19.4,10,28.9,15.3
				c4.8,2.7,9.6,6.2,14.6,8.5c3.3,1.5,7.3,0.4,10.9,0.2c4.7-0.2,9.4,0.1,14.2,0.1c1.8,0,0.6,0.4,1.1-0.2c-0.1,0.2,0-1.6,0.3-1.3
				c-0.1-0.1,0.1,0.2-0.4,0.4c-1.1,0.3-2.4,1.8-3.5,2.4c-1.5,0.8-3.2,1.5-4.8,2.1c-1.7,0.6-3.5,1.2-5.3,1.7c-1,0.3-1.5,1.7-0.7,2.5
				c8.9,7.9,14.5,19.1,19.2,29.8c3.8,8.7,7.7,17.8,10.3,26.9c2,7.1,2.4,14.9,3.1,22.2c0.8,9.3,1.4,18.5,1.9,27.8
				c0.3,5.4,0.6,10.8,0.8,16.2c0.1,1.4,1.6,1.8,2.6,1.1c16.1-12.6,28.6-29.1,36.7-47.8c2.2-5,4.1-10.2,5.5-15.4
				c1.6-5.9-0.2-11.7-0.9-17.8c-1.8-16.4-3.1-33-2.5-49.6c0.2-6.9,5.2-14.1,8.6-20c4.7-8.3,10.2-16.1,17-22.8c3-3,7-7.3,11-8.9
				c5.6-2.2,13.7,4,17,8.4c0.6,0.8,2,1.1,2.6,0c3-5.6,3.4-12.8,4.1-18.9c0.4-3.4,0.7-6.8,0.9-10.2c0.1-1.8-0.2-4.5,0.4-6.2
				c0.8-2.2,4-5.2,5.4-7.2c1.8-2.6,3.4-5.2,5.1-7.9c3.4-5.5,6.6-11.2,9.4-17.1c4.8-9.8,8.9-20.1,12.1-30.5
				c7.5-24.5,10.6-50.3,7.7-75.7c-2.5-21.5-9.1-42.4-18.6-61.8c-5.2-10.6-11.3-20.8-18-30.4c-7.3-10.4-15.8-19.7-23.9-29.5
				c-8.5-10.3-20.1-24.4-20.6-38.6c0-1.5,0.2-3.8,0.7-4.7c1.7-3.3,6.5-6.8,9.2-9.3c4.8-4.6,9.9-8.9,15.2-12.8
				c15.3-11.3,33.1-20.1,52.2-22.3c6.7-0.8,14.3-1.1,21,0.8c1.9,0.5,2.7-2.4,0.8-2.9c-18.5-5.4-41,1.9-57.3,10.4
				c-9.4,4.9-18.1,11-26.2,17.8c-5.1,4.3-9.9,8.8-14.5,13.6c-1.1,1.1-2.4,2.2-3.1,3.6c-2.8,5.5,0.1,13.5,2.3,18.6
				c8.6,20.3,25.8,35.2,38.6,52.6c14.6,19.8,26.2,41.9,33.2,65.5c8.1,27.5,9.2,55.9,3.7,84c-5.1,25.6-15.1,50.1-29.4,72
				c-2.4,3.7-7,8.1-7.9,12.5c-0.6,2.6-0.3,5.7-0.6,8.4c-0.6,7.8-0.6,17.8-4.3,24.8c0.9,0,1.7,0,2.6,0c-3.7-4.9-9.4-8.9-15.5-9.9
				c-4.4-0.7-6,0.5-9.3,2.9c-13.7,10.1-23.5,25.2-30.5,40.4c-2.4,5.2-3.8,8.6-3.9,14c-0.1,7.2,0.1,14.5,0.5,21.7
				c0.7,12.7,2.7,25.2,3.7,37.8c0.3,3.5-1.2,7.1-2.4,10.5c-7.4,22-21.3,41.6-39.6,56c0.9,0.4,1.7,0.7,2.6,1.1
				c-0.6-14.3-1.4-28.6-2.7-42.9c-0.7-7.6-1.1-15.6-3-23.1c-2.1-8.6-6-17.2-9.4-25.3c-5.1-12.1-11.1-24.9-21.1-33.7
				c-0.2,0.8-0.4,1.7-0.7,2.5c4-1.1,8.2-2.5,11.8-4.6c1-0.6,3.5-1.9,3.9-3.4c0.9-3.6-5.6-3.2-7.6-3.3c-2.3-0.1-4.7,0-7,0
				c-1.9,0-3.8,0.1-5.7,0.2c-1.8,0.1-4.6,0.9-6.3,0.6c-1-0.2-2.5-1.5-3.4-2c-7-4.2-14.1-8.2-21.3-12.1
				c-24.6-13.4-50.1-25.5-76.5-34.9c-7.5-2.7-15-5.1-22.6-7.2c-4-1.1-9.7-3.8-13.6-2.2c-3.9,1.6-7.7,4.1-11.5,6
				c-1.1,0.6-3.5,1.3-4.3,2.3c0.3-0.3,1.6,0.9,0.2-0.2c-2.5-2-6.7-3-9.6-4.3c-4.9-2.2-9.9-4.4-14.8-6.7c-6.7-3-13.3-6-20-9
				c0.1,0.8,0.2,1.6,0.3,2.4c10.7-12,29.2-18.2,44.3-21.4c8.8-1.9,17.7-2.9,26.6-3.2c11.5-0.4,24.5-0.7,35.8,2
				c5.2,1.2,10.4,3.3,15.6,4.9c24.2,7.6,48.5,15.3,72.7,22.9c11.5,3.6,22.2,7.7,34.3,8.5c11.3,0.8,24.2-0.1,33.6-7
				c5-3.7,8.3-9,9.7-15c0.6-2.4,2-7.9,0.6-10.1c-1.1-1.6-4.2-2.8-5.8-3.8c0.2,0.7,0.4,1.4,0.5,2.1c2.8-3.8,5.7-7.6,8.5-11.3
				c1.8-2.4,5-5.3,5.8-8.3c0.8-3,0.2-7.1,0.1-10.1c-0.8-15.9-5.4-32.1-15.2-44.9c-16.2-20.9-43.1-26.6-68.3-25.1
				c-9.6,0.6-14.5-0.2-19.3,8.3c-4.8,8.5-7.6,18.4-10.1,27.7c-5.8,21.5-9.5,43.6-12.9,65.6c0.9-0.1,1.8-0.2,2.7-0.4
				c-24.1-35.4-40.7-76.5-48.6-118.5c-0.1-0.6-0.8-1.1-1.4-1.1c-23.7,0.6-50.3-0.7-71.3-13.1c-5.5-3.2-13.1-9.3-15.2-14.4
				c-0.5,0.6-1,1.3-1.4,1.9c11.2-1.4,28.7-4.9,30.9-18.6c1.1-6.9-3.5-13.8-6.4-19.7c-4.9-10-10.8-19.4-17.5-28.1
				c-14.6-18.8-33.7-33.7-55.6-42.9c-10.9-4.6-22.3-7.8-34-9.6c-5.1-0.8-10.2-1.3-15.3-1.5c-2-0.1-3.9-0.1-5.9-0.1
				c-0.7,0-2.5,0.4-3.1,0.1c0.5,0.3-2.5-4.2-1.5-2.7c-1.4-2-3-3.8-4.5-5.8c-1.8-2.4-3.7-4.9-5.4-7.3c-3.7-5.2-7.4-10.5-10.8-15.9
				c-5.3-8.4-10.2-17-14.5-25.9c-5.8-12.2-10.6-25.4-12.1-38.9c-0.7-6-0.9-12.4,0.7-18.3c0.2-0.8,1.2-2.6,0.3-1.6
				c0.6-0.7,1.2-1,2-1.5c5.8-3.8,13-5.5,19.7-6.6c15.7-2.6,32.1-1.6,47.8,0.3c6.4,0.8,12.7,1.7,19,2.9c3,0.5,6,1.1,9,1.7
				c2.5,0.5,5.8,1.9,8.4,1.6c3.6-0.4,7.1-2.9,10.6-3.9c7.5-2.1,15.9-2.7,23.4-0.2c6,2,9.8,7,15.6,9.5c11,4.8,23.3,6.8,35,8.9
				c15.9,2.8,31.9,4.9,47.9,6.6C669.4-1.3,683.7,0,698,0.6c7.7,0.3,15.2,0.6,22.7-1.3c10.9-2.8,21.5-6.7,32.3-9.9
				c15.7-4.6,31.7-8.4,47.9-10.6c41.2-5.5,83.2,0.7,119.3,22c11,6.5,21.3,14.2,30.9,22.7C952.4,24.8,954.6,22.7,953.1,21.4z"/>
			<path d="M552.2,19.6c-10.8-0.6-10.9-16.9,0-16.9C563.1,2.7,563,19,552.2,19.6c-1.9,0.1-1.9,3.1,0,3c6.2-0.3,11.4-5,11.4-11.4
				c0-6.2-5.2-11.5-11.4-11.4c-6,0-11.1,4.9-11.4,10.9c-0.3,6.7,5,11.6,11.4,12C554.1,22.7,554.1,19.7,552.2,19.6z"/>
		</g>
	</g>
	<g class="st5">
		<g>
			<path d="M464.4,97.2c1.9,0,1.9-3,0-3C462.5,94.2,462.5,97.2,464.4,97.2L464.4,97.2z"/>
		</g>
	</g>
	<g class="st5">
		<g>
			<path d="M571.4,214.6c1.9,0,1.9-3,0-3C569.5,211.6,569.5,214.6,571.4,214.6L571.4,214.6z"/>
		</g>
	</g>
	<g class="st5">
		<path class="st7" d="M778.4,168.3l-61.5-94.7C718.8,74.6,786.1,107.9,778.4,168.3z"/>
		<g>
			<path d="M779.7,167.6c-18-27.6-35.9-55.3-53.9-82.9c-2.6-3.9-5.1-7.9-7.7-11.8c-0.7,0.7-1.4,1.4-2.1,2.1
				c23.8,11.7,46.5,32.4,56.3,57.3c4.5,11.5,5.9,23.8,4.5,36.1c-0.2,1.9,2.8,1.9,3,0c4.6-38.7-21.4-70.7-52.4-90.3
				c-3.2-2-6.5-4-9.9-5.6c-1.3-0.6-2.9,0.7-2.1,2.1c18,27.6,35.9,55.3,53.9,82.9c2.6,3.9,5.1,7.9,7.7,11.8
				C778.1,170.7,780.7,169.2,779.7,167.6z"/>
		</g>
	</g>
	<g class="st5">
		<path class="st7" d="M796.2,149.7l-35.9-64.3C760.3,85.4,800,112.9,796.2,149.7z"/>
		<g>
			<path d="M797.5,148.9c-12-21.4-23.9-42.8-35.9-64.3c-0.7,0.7-1.4,1.4-2.1,2.1c19.9,13.8,37.4,37.9,35.2,63c-0.2,1.9,2.8,1.9,3,0
				c2.4-26.2-16-51.2-36.7-65.6c-1.3-0.9-2.7,0.8-2.1,2.1c12,21.4,23.9,42.8,35.9,64.3C795.8,152.1,798.4,150.6,797.5,148.9z"/>
		</g>
	</g>
	<g class="st5">
		<path class="st7" d="M806.8,124.3l-20.6-31.3C787.3,93.7,806,103.9,806.8,124.3z"/>
		<g>
			<path d="M808.1,123.6c-6.9-10.4-13.8-20.8-20.6-31.3c-0.7,0.7-1.4,1.4-2.1,2.1c11.1,5.9,19.1,17.4,19.9,30c0.1,1.9,3.1,1.9,3,0
				c-0.8-13.6-9.3-26.2-21.4-32.5c-1.3-0.7-2.9,0.7-2.1,2.1c6.9,10.4,13.8,20.8,20.6,31.3C806.6,126.7,809.2,125.2,808.1,123.6z"/>
		</g>
	</g>
	<g class="st5">
		<g>
			<path d="M471,95.7c0.3,2.3,0.5,4.6,0.8,6.8c0.1,1.1,1.2,1.9,2.3,1.3c4-2.4,9.5-5.8,14.3-5.2c1.9,0.2,1.9-2.8,0-3
				c-5.3-0.6-11.4,2.9-15.8,5.6c0.8,0.4,1.5,0.9,2.3,1.3c-0.3-2.3-0.5-4.6-0.8-6.8C473.8,93.8,470.8,93.8,471,95.7L471,95.7z"/>
		</g>
	</g>
	<g class="st5">
		<g>
			<path d="M492.4,98.1c-0.5,4.3-1,8.6-1.5,12.9c-0.2,1.3,1.7,2,2.6,1.1c3.8-4.2,10.1-9.6,16.2-8.4c1.9,0.4,2.7-2.5,0.8-2.9
				c-7.3-1.4-14.5,4-19.1,9.2c0.9,0.4,1.7,0.7,2.6,1.1c0.5-4.3,1-8.6,1.5-12.9C495.6,96.2,492.6,96.2,492.4,98.1L492.4,98.1z"/>
		</g>
	</g>
	<g class="st5">
		<g>
			<path d="M517.4,104.9c-1.8,5.2-3.7,10.4-5.5,15.7c-0.5,1.5,1.5,2.4,2.5,1.5c2-1.8,4.2-3.4,6.4-4.9c2.8-1.9,8.1-5.7,11.7-4
				c1.7,0.8,3.3-1.8,1.5-2.6c-7.1-3.4-16.7,4.9-21.7,9.3c0.8,0.5,1.7,1,2.5,1.5c1.8-5.2,3.7-10.4,5.5-15.7
				C520.9,103.9,518,103.1,517.4,104.9L517.4,104.9z"/>
		</g>
	</g>
	<g class="st5">
		<g>
			<path d="M537.1,114.5c-2.4,5.9-4.8,11.9-7.2,17.8c-0.6,1.6,1.5,2.2,2.5,1.5c2-1.6,4.7-3.4,7.1-4.9c2.5-1.5,8.3-5.7,11.3-3.9
				c1.7,1,3.2-1.6,1.5-2.6c-3.7-2.3-9,0.8-12.2,2.7c-3.4,1.9-6.7,4.2-9.8,6.6c0.8,0.5,1.7,1,2.5,1.5c2.4-5.9,4.8-11.9,7.2-17.8
				C540.7,113.5,537.8,112.7,537.1,114.5L537.1,114.5z"/>
		</g>
	</g>
	<g class="st5">
		<g>
			<path d="M553.4,125.4c-3.5,6.6-7,13.2-10.6,19.8c-0.8,1.5,1.1,3,2.4,1.8c5.4-4.8,14.6-11,21.9-7.4c1.7,0.8,3.2-1.7,1.5-2.6
				c-8.8-4.3-19,2.1-25.5,7.9c0.8,0.6,1.6,1.2,2.4,1.8c3.5-6.6,7-13.2,10.6-19.8C556.9,125.2,554.3,123.7,553.4,125.4L553.4,125.4z"
				/>
		</g>
	</g>
	<g class="st5">
		<g>
			<path d="M582.3,153.5c-0.2-0.4-0.5-0.7-0.8-1c-0.6-0.5-1.5-0.6-2.1,0c-0.5,0.5-0.6,1.6,0,2.1c0,0,0.3,0.3,0.2,0.2
				c-0.1-0.1,0.2,0.2,0.2,0.2c0.5,0.7,1.3,1,2.1,0.5C582.4,155.1,582.7,154.1,582.3,153.5L582.3,153.5z"/>
		</g>
	</g>
	<g class="st5">
		<g>
			<path d="M569.1,139.7c-4.7,6-9.4,12.1-14.1,18.1c-1,1.3,0.2,3.3,1.8,2.4c4.9-2.8,17.4-10.3,22.6-5.6c1.4,1.3,3.6-0.8,2.1-2.1
				c-6.8-6.1-19.9,1.4-26.2,5.1c0.6,0.8,1.2,1.6,1.8,2.4c4.7-6,9.4-12.1,14.1-18.1C572.3,140.3,570.2,138.2,569.1,139.7L569.1,139.7
				z"/>
		</g>
	</g>
	<g class="st5">
		<g>
			<path d="M581.8,155.9c-6,6.2-12,12.3-18,18.5c-1.2,1.3,0.3,3.1,1.8,2.4c7-3.3,18-7.7,25.4-3.7c1.7,0.9,3.2-1.7,1.5-2.6
				c-8.5-4.5-20.4-0.1-28.4,3.7c0.6,0.8,1.2,1.6,1.8,2.4c6-6.2,12-12.3,18-18.5C585.3,156.7,583.2,154.5,581.8,155.9L581.8,155.9z"
				/>
		</g>
	</g>
	<g class="st5">
		<g>
			<path d="M593,174.2c-7.5,5.1-14.9,10.3-22.4,15.4c-1.5,1-0.5,3,1.2,2.7c8.3-1.2,20.9-3.3,28.4,1.3c1.6,1,3.2-1.6,1.5-2.6
				c-8.3-5.1-21.5-3-30.7-1.6c0.4,0.9,0.8,1.8,1.2,2.7c7.5-5.1,14.9-10.3,22.4-15.4C596.1,175.7,594.6,173.1,593,174.2L593,174.2z"
				/>
		</g>
	</g>
	<g class="st5">
		<g>
			<path d="M660.7,241.3c-1.8-10.4-3.1-20.9-3.7-31.4c-0.6-11.2-1.5-25,4.1-35.2c0.9-1.7-1.7-3.2-2.6-1.5c-5.6,10.4-5.1,24-4.6,35.4
				c0.5,11.2,1.9,22.4,3.8,33.5C658.2,244,661.1,243.2,660.7,241.3L660.7,241.3z"/>
		</g>
	</g>
	<g class="st5">
		<g>
			<path d="M566.8-21.5c5.6,5.3,11.8,11.5,19,14.6c1.8,0.7,2.6-2.2,0.8-2.9c-6.6-2.8-12.5-8.9-17.6-13.8
				C567.5-24.9,565.4-22.8,566.8-21.5L566.8-21.5z"/>
		</g>
	</g>
	<g class="st5">
		<g>
			<path d="M445,70.8c1.9,0,1.9-3,0-3C443,67.8,443,70.8,445,70.8L445,70.8z"/>
		</g>
	</g>
	<g class="st5">
		<path class="st6" d="M522.3-25.1c0,0-7,3.1-12.7,3.8"/>
		<g>
			<path d="M521.5-26.4c-3.8,1.6-7.9,3-11.9,3.5c-1.9,0.3-1.9,3.3,0,3c4.6-0.6,9.2-2.1,13.4-4C524.8-24.6,523.3-27.2,521.5-26.4
				L521.5-26.4z"/>
		</g>
	</g>
	<g class="st5">
		<path class="st6" d="M449.9,76.4"/>
		<g>
			<path d="M449.9,77.9c1.9,0,1.9-3,0-3C447.9,74.9,447.9,77.9,449.9,77.9L449.9,77.9z"/>
		</g>
	</g>
</g>
<g id="Layer_5">
	<path class="st8" d="M0,0v503.4c49.7-19.7,101.9-33.3,152.3-19.1c22.5,6.3,43.2,17.9,64.7,26.9c22.8,9.5,46.8,16.1,71.3,19.7
		c0,0,21-349.2,296-473.2c0,0-86.8,214.6,241.1,434.3c40.8,16.4,81.9,29.4,125.3,25.3c54.8-5.1,105.3-37.3,158.6-46V0H0z"/>
	<path class="st9" d="M825.4,492c-50.7-20.4-101-46.2-154.8-51.6c-47.6-4.8-96,6.9-139,27.9c-23.9,11.7-46.3,26.2-70.4,37.5
		c-53.5,25.2-114.5,33.7-173,25.1c0,0,21-349.2,296-473.2C584.3,57.7,497.5,272.3,825.4,492z"/>
</g>
</svg>
