<?xml version="1.0" encoding="utf-8"?>
<!-- Generator: Adobe Illustrator 23.0.1, SVG Export Plug-In . SVG Version: 6.00 Build 0)  -->
<svg version="1.1" xmlns="http://www.w3.org/2000/svg" xmlns:xlink="http://www.w3.org/1999/xlink" x="0px" y="0px"
	 viewBox="0 0 1920 939" style="enable-background:new 0 0 1920 939;" xml:space="preserve">
<style type="text/css">
	.st0{display:none;}
	.st1{display:inline;fill:#0090E0;}
	.st2{fill:#FFFFFF;}
	.st3{fill:#C7E7F9;}
	.st4{fill:#A5A5A5;}
</style>
<g id="Layer_2" class="st0">
	<rect x="-294" y="-533" class="st1" width="2318" height="1823"/>
</g>
<g id="Layer_1">
	<g>
		<path class="st2" d="M1841.7,939c0.8-0.4,1.5-0.8,2.3-1.3v1.3H1841.7z"/>
	</g>
	<g>
		<path class="st3" d="M1920,0v604.7c-99.6-119.9-280-206.3-336-231.2c171.4,85.7-58.1,411.2-232,533.3l-247-328.4
			c0,0-354,339.9-566,302.9S338,590.1,338,590.1C258.8,777.8,73.6,847.8,0,868.8V0H1920z"/>
	</g>
	<g>
		
			<image style="overflow:visible;opacity:0.54;" width="933" height="888" xlink:href="CB106611.png"  transform="matrix(1 0 0 1 559 19)">
		</image>
		<g>
			<path class="st4" d="M1216.4,67.5C674.3,266.8,587.8,702.8,576,884.2c213.7-2.9,529-305.6,529-305.6l247,328.4
				c34.9-24.5,72.1-57.3,107.9-94.7C1170.1,463.3,1216.4,67.5,1216.4,67.5z"/>
		</g>
	</g>
</g>
</svg>
