<?xml version="1.0" encoding="utf-8"?>
<!-- Generator: Adobe Illustrator 23.0.1, SVG Export Plug-In . SVG Version: 6.00 Build 0)  -->
<svg version="1.1" xmlns="http://www.w3.org/2000/svg" xmlns:xlink="http://www.w3.org/1999/xlink" x="0px" y="0px"
	 viewBox="0 0 1920 1102" style="enable-background:new 0 0 1920 1102;" xml:space="preserve">
<style type="text/css">
	.st0{fill:#FFFFFF;}
	.st1{fill:none;stroke:#000000;stroke-width:2.073;stroke-miterlimit:10;}
	.st2{stroke:#000000;stroke-width:2.073;stroke-miterlimit:10;}
	.st3{fill:#CECECE;stroke:#000000;stroke-width:2.073;stroke-miterlimit:10;}
	.st4{fill:#A8A8A8;stroke:#000000;stroke-width:2.073;stroke-miterlimit:10;}
	.st5{fill:#5296C3;}
</style>
<g id="Layer_1">
	<g>
		<path class="st0" d="M1917.7,1080c0.8-0.5,1.5-1,2.3-1.6v1.6H1917.7z"/>
	</g>
	<g>
		<path class="st0" d="M1105.1,702.2l-0.4,0.5c-0.2,0.3-23.4,27.2-60.6,65.9c-26.3,27.3-53.1,53.8-79.7,78.6
			c-110.7,103.4-268.5,226.7-391.4,226.8c-11.8,0-23.1-1.1-33.8-3.4c-48.2-10.2-88.8-35.2-120.6-74.1
			c-25.4-31.2-45.3-71.3-59.1-119.4c-23.5-81.9-21-159.2-21-160l0.1-3.3l-1.1,3.1C258.9,943.2,76.2,1028.6,0.5,1055V0.5h1919v732.7
			c-35.1-51-83.5-101.9-143.7-151.4c-80.1-65.7-160.6-111.7-191.5-128.4l-0.5,0.9c29.9,18.2,48.9,46.2,56.5,83.4
			c10.2,50-0.7,117.5-31.4,195.1c-27.1,68.4-69.7,144.7-120.2,214.9c-44.1,61.4-92.6,115.9-136.6,153.5L1105.1,702.2z"/>
		<path d="M1919,1v730.6c-35.1-50.6-83.1-101.1-142.9-150.2c-80.1-65.7-160.7-111.7-191.6-128.4l-1,1.7
			c29.8,18.1,48.7,46.1,56.3,83.1c5.3,25.9,5,56.3-0.9,90.5c-5.4,31.9-15.7,67-30.5,104.4c-27,68.4-69.7,144.6-120.1,214.8
			c-44,61.1-92.2,115.4-136.1,153l-95-153.4l-151.4-244.6l-0.7-1.2l-0.9,1c-0.2,0.3-23.3,27.2-60.6,65.9
			c-26.3,27.3-53.1,53.8-79.7,78.6c-110.6,103.4-268.3,226.6-391,226.6c-11.7,0-23.1-1.1-33.7-3.4c-48.1-10.2-88.6-35.1-120.3-73.9
			c-25.4-31.1-45.2-71.2-59-119.2c-23.4-81.8-21-159.1-21-159.9l0.2-6.6l-2.2,6.3c-34.1,98.3-91.6,180.7-170.8,244.8
			c-28.9,23.4-60.6,44.2-94,61.7c-23.6,12.4-47.6,22.8-71.3,31.1V1H1919 M1920,0H0v1055.7c73.6-25.5,258.8-110.6,338-338.7
			c0,0-11,309,201,354c11,2.3,22.3,3.4,33.9,3.4c122.8,0,280.1-122.6,391.7-226.9c30.5-28.5,57.7-55.7,79.8-78.6
			c37.7-39.2,60.6-65.9,60.6-65.9l151.4,244.6L1352,1102c44.6-38.1,92.9-92.4,137.1-154c128.2-178.3,222.3-416.7,94.9-494.1
			c33.7,18.2,112.4,63.4,191.4,128.3c52.4,43,104.9,94.6,144.6,152.6V0L1920,0z"/>
	</g>
</g>
<g id="Layer_3">
	<g>
		<path class="st1" d="M495.7,439.1"/>
		<path class="st1" d="M767.2,169c0,16.1-13.1,29.4-29.3,29.4c-16.3,0-29.4-13.3-29.4-29.4c0-16.3,13.1-29.4,29.4-29.4
			C754.1,139.6,767.2,152.8,767.2,169z"/>
		<path class="st1" d="M1040.1,198.6"/>
		<path class="st1" d="M1088.5,552.1"/>
		<path class="st1" d="M1188.3,241.9"/>
		<path class="st1" d="M1259.2,567.6"/>
		<path class="st1" d="M1288.5,312.2"/>
		<path class="st1" d="M1324.6,475.7"/>
		<path class="st1" d="M855.1,878.7"/>
		<path class="st2" d="M767.2,169c0,16.1-13.1,29.4-29.3,29.4c-16.3,0-29.4-13.3-29.4-29.4c0-16.3,13.1-29.4,29.4-29.4
			C754.1,139.6,767.2,152.8,767.2,169z"/>
		<path class="st2" d="M1088.5,552.1"/>
		<path class="st2" d="M1188.3,241.9"/>
		<path class="st2" d="M1259.2,567.6"/>
		<path class="st2" d="M1288.5,312.2"/>
		<path class="st2" d="M1324.6,475.7"/>
		<path class="st1" d="M1055.7,856.6c0-0.4-0.1-0.8-0.1-1.2 M1054.7,850.6h-0.1"/>
		<path class="st1" d="M1048.4,1183.4"/>
		<path class="st1" d="M1451,1848.3"/>
		<path class="st3" d="M1626.7,333.3c0,0-25.8,39.6,77.3,154.6c27.1,30.3,51,61.9,71.4,94.4c-79.1-64.9-157.8-110.1-191.4-128.3
			c127.4,77.4,33.3,315.9-94.9,494.1c-41-32.8-104.7-52.8-203.5-39.9c0,0-11.4-3.9-29.2,39.4L1105,703c0,0-22.9,26.8-60.6,65.9
			c-22.1,22.9-49.2,50.1-79.8,78.6c-144.1-15.9-170-81.5-170-81.5c85.2-9.5,88.8-48.3,87.3-61.5v0c-0.3-2.7-0.8-4.4-0.8-4.4
			c-6.4-16-13.3-31.1-20.3-45.3c-2-3.8-3.9-7.4-5.9-11.1c0,0,0,0,0,0c0,0,0,0,0,0c-8.3-15.6-17.2-30-26.4-43.6
			c-2.3-3.5-4.8-6.9-7.3-10.3v-0.1c-9.8-13.5-19.9-26.2-30.5-37.6c-2.2-2.5-4.4-4.8-6.6-7.2c0,0,0,0,0,0
			c-12.6-13.4-25.8-25.4-38.9-35.9l0,0c-3.1-2.6-6.1-4.9-9.2-7.3c-0.1,0-0.1-0.1-0.3-0.1c-12.8-9.8-25.5-18.4-38.4-25.9
			c-5.2-3.1-10.5-6.1-15.7-8.9c-14.3-7.7-28.6-14.1-42.4-19.5c-7.8-3.1-15.5-5.9-23-8.3c-0.9-0.4-1.9-0.7-3-0.9
			c-16.9-5.3-32.9-9.2-47.8-12.1c-5.6-1.2-11.1-2.1-16.3-2.9c-0.5-0.1-0.9-0.1-1.4-0.2c0,0,0,0,0,0c0,0,0,0-0.1,0
			c-41.7-6.4-69.3-4.1-69.3-4.1C284.7,177.9,334.6,67.7,334.6,67.7s57.3-62.6,315-6l25.8-9.9c0,0,67.4-23.8,107.1,15.9
			c0,0,0.6,0.6,1.8,1.7c47.5,38.9,385.6,70.7,434.1,63.8c83.3-12,414.3-188.3,701.6,69.4C1920,202.5,1785.2,162.8,1626.7,333.3z"/>
		<path class="st2" d="M738,198.5c-16.3,0-29.4-13.3-29.4-29.4c0-16.3,13.1-29.4,29.4-29.4c16.1,0,29.3,13.1,29.3,29.4
			C767.2,185.2,754.1,198.5,738,198.5z"/>
		<path class="st1" d="M478.5,418.9"/>
		<path class="st1" d="M794.7,766.1"/>
		<path class="st4" d="M1406.5,633.7l-181.9-279.9C1230.5,356.6,1429.4,455.1,1406.5,633.7z"/>
		<path class="st4" d="M1459.2,578.5l-106.2-190C1353.1,388.5,1470.6,469.8,1459.2,578.5z"/>
		<path class="st4" d="M1490.6,503.5l-61-92.4C1433.1,413,1488.3,443,1490.6,503.5z"/>
		<path class="st1" d="M502.4,418.9l2.4,20.2c0,0,30.1-18.5,44.5-16"/>
		<path class="st1" d="M565.5,426l-4.4,38.1c0,0,28.4-31.8,52.2-26"/>
		<path class="st1" d="M639.3,447.4l-16.2,46.3c0,0,41.3-36.7,58.7-26.8"/>
		<path class="st1" d="M697.5,475.7l-21.3,52.6c0,0,46.6-36.4,59.7-26.7"/>
		<path class="st1" d="M745.4,509l-31.2,58.6c0,0,42.3-38.2,70.1-22.6"/>
		<path class="st1" d="M823.1,591.9c-0.5-0.8-1-1.6-1.7-2.1"/>
		<path class="st1" d="M790.9,552.1l-41.6,53.5c0,0,55.8-32.9,72.1-15.9"/>
		<path class="st1" d="M828.7,600.1l-53.2,54.7c0,0,54.5-26.2,79.6-11.1"/>
		<path class="st1" d="M860.9,654.8l-66.2,45.5c0,0,66.4-10.1,87.4,4.3"/>
		<path class="st1" d="M1044.4,768.9c-3.3-44.3-2.6-93.3,11.8-118.5"/>
		<path class="st1" d="M784.3,69.4c7.8,7.4,39.3,36.2,54.1,41.9"/>
		<path class="st1" d="M421,341"/>
		<path class="st3" d="M649.6,61.7c0,0-20.7,9.1-37.5,11.1"/>
		<path class="st3" d="M435.4,361.9"/>
	</g>
	<g>
		<path class="st1" d="M2053.7-144.9"/>
		<path class="st1" d="M2325.2-415c0,16.1-13.1,29.4-29.3,29.4c-16.3,0-29.4-13.3-29.4-29.4c0-16.3,13.1-29.4,29.4-29.4
			C2312.1-444.4,2325.2-431.2,2325.2-415z"/>
		<path class="st1" d="M2598.1-385.4"/>
		<path class="st1" d="M2646.5-31.9"/>
		<path class="st1" d="M2746.3-342.1"/>
		<path class="st1" d="M2817.2-16.4"/>
		<path class="st1" d="M2846.5-271.8"/>
		<path class="st1" d="M2882.6-108.3"/>
		<path class="st1" d="M2413.1,294.7"/>
		<path class="st2" d="M2325.2-415c0,16.1-13.1,29.4-29.3,29.4c-16.3,0-29.4-13.3-29.4-29.4c0-16.3,13.1-29.4,29.4-29.4
			C2312.1-444.4,2325.2-431.2,2325.2-415z"/>
		<path class="st2" d="M2646.5-31.9"/>
		<path class="st2" d="M2746.3-342.1"/>
		<path class="st2" d="M2817.2-16.4"/>
		<path class="st2" d="M2846.5-271.8"/>
		<path class="st2" d="M2882.6-108.3"/>
		<path class="st1" d="M2613.7,272.6c0-0.4-0.1-0.8-0.1-1.2 M2612.7,266.6h-0.1"/>
		<path class="st3" d="M3135,1069.4c-17.2-124-12.4-195.3-12.4-195.3c46.6-117.9,112.2-150.7,112.2-150.7
			c32.3-2.3,54.1,27.6,54.1,27.6c11.5-19.5,15.2-102.7,15.2-102.7c136.9-183,120.4-369.9,120.4-369.9
			c-4-124.8-59.5-259.6-162.5-374.5c-103.1-115-77.3-154.6-77.3-154.6C3343.2-421.2,3478-381.5,3478-381.5
			c-287.3-257.6-618.3-81.3-701.6-69.4c-48.5,6.9-386.6-24.9-434.1-63.8c-1.2-1-1.8-1.7-1.8-1.7c-39.7-39.7-107.1-15.9-107.1-15.9
			l-25.8,9.9c-257.8-56.6-315,6-315,6s-49.8,110.2,143.9,351.2c0,0,28.2-2.3,70.8,4.3c5.2,0.8,10.7,1.7,16.3,2.9
			c14.8,2.9,30.8,6.8,47.8,12.1c1,0.3,2.1,0.5,3,0.9c7.5,2.5,15.2,5.2,23,8.3c13.8,5.5,28.1,11.8,42.4,19.5
			c5.2,2.7,10.5,5.7,15.7,8.8c12.9,7.5,25.6,16.1,38.4,25.9c0.1,0,0.1,0.1,0.3,0.1c3.1,2.3,6.1,4.7,9.2,7.3
			c13.1,10.5,26.3,22.5,38.9,35.9c2.2,2.3,4.4,4.7,6.6,7.2c10.5,11.5,20.7,24.1,30.4,37.6v0.1c2.5,3.4,4.9,6.8,7.3,10.3
			c9.2,13.5,18.1,28,26.4,43.6c2,3.6,3.9,7.3,5.9,11.1c7,14.2,13.9,29.3,20.3,45.3c0,0,0.5,1.7,0.8,4.4c1.4,13.3-2.1,52-87.3,61.5
			c0,0,36,91.3,259.9,84.6c0.5,2.5,0.8,4.6,1.2,6c0.1,1,0.3,1.8,0.4,2.3c0.1,0.5,0.1,0.8,0.1,0.8
			c29.7,176.7,142.5,342.2,142.5,342.2c47-307.6,86.9-293.8,86.9-293.8c302.3-39.4,276.1,229.1,276.1,229.1l-41.8,55.6l15.6,9.5
			c3.4,120.8-163,83.1-163,83.1l-324.1-102.1c-231.4-32.3-319.8,67.9-319.8,67.9l134,60.4l50.5-26.5c183,39.9,399.2,174,399.2,174
			c88.4-5.3,76,2.3,76,2.3c-7.2,10.4-42.8,20.4-42.8,20.4c43.7,37.5,73.6,129.7,87.1,165.9c11.6,31.4,18.5,200.5,18.5,200.5
			C3112.8,1167.9,3135,1069.4,3135,1069.4z"/>
		<path class="st2" d="M2296-385.5c-16.3,0-29.4-13.3-29.4-29.4c0-16.3,13.1-29.4,29.4-29.4c16.1,0,29.3,13.1,29.3,29.4
			C2325.2-398.8,2312.1-385.5,2296-385.5z"/>
		<path class="st1" d="M2036.5-165.1"/>
		<path class="st1" d="M2352.7,182.1"/>
		<path class="st4" d="M2964.5,49.7l-181.9-279.9C2788.5-227.4,2987.4-128.9,2964.5,49.7z"/>
		<path class="st4" d="M3017.2-5.5l-106.2-190C2911.1-195.5,3028.6-114.2,3017.2-5.5z"/>
		<path class="st4" d="M3048.6-80.5l-61-92.4C2991.1-171,3046.3-141,3048.6-80.5z"/>
		<path class="st1" d="M2060.4-165.1l2.4,20.2c0,0,30.1-18.5,44.5-16"/>
		<path class="st1" d="M2123.5-158l-4.4,38.1c0,0,28.4-31.8,52.2-26"/>
		<path class="st1" d="M2197.3-136.6l-16.2,46.3c0,0,41.3-36.7,58.7-26.8"/>
		<path class="st1" d="M2255.5-108.3l-21.3,52.6c0,0,46.6-36.4,59.7-26.7"/>
		<path class="st1" d="M2303.4-75l-31.2,58.6c0,0,42.3-38.2,70.1-22.6"/>
		<path class="st1" d="M2381.1,7.9c-0.5-0.8-1-1.6-1.7-2.1"/>
		<path class="st1" d="M2348.9-31.9l-41.6,53.5c0,0,55.8-32.9,72.1-15.9"/>
		<path class="st1" d="M2386.7,16.1l-53.2,54.7c0,0,54.5-26.2,79.6-11.1"/>
		<path class="st1" d="M2418.9,70.8l-66.2,45.5c0,0,66.4-10.1,87.4,4.3"/>
		<path class="st1" d="M2612.5,266.6c-5.9-34-24.2-155.1,1.7-200.3"/>
		<path class="st1" d="M2342.3-514.6c7.8,7.4,39.3,36.2,54.1,41.9"/>
		<path class="st1" d="M1979-243"/>
		<path class="st3" d="M2207.6-522.3c0,0-20.7,9.1-37.5,11.1"/>
		<path class="st3" d="M1993.4-222.1"/>
	</g>
</g>
<g id="Layer_2">
	<g>
		<path class="st5" d="M1583.9,453.9c-10.1-5.5-16.1-8.5-16.9-8.8C1573,447.7,1578.7,450.7,1583.9,453.9z"/>
	</g>
</g>
</svg>
