<?xml version="1.0" encoding="utf-8"?>
<!-- Generator: Adobe Illustrator 23.0.1, SVG Export Plug-In . SVG Version: 6.00 Build 0)  -->
<svg version="1.1" xmlns="http://www.w3.org/2000/svg" xmlns:xlink="http://www.w3.org/1999/xlink" x="0px" y="0px"
	 viewBox="0 0 2151.1 997.9" style="enable-background:new 0 0 2151.1 997.9;" xml:space="preserve">
<style type="text/css">
	.st0{display:none;}
	.st1{display:inline;fill:#E2E2E2;}
	.st2{display:inline;fill:#4A94C6;}
	.st3{fill:none;stroke:#000000;stroke-width:1.9408;stroke-miterlimit:10;}
	.st4{stroke:#000000;stroke-width:1.9408;stroke-miterlimit:10;}
	.st5{fill:none;}
	.st6{fill:#4389AF;stroke:#000000;stroke-width:1.6017;stroke-miterlimit:10;}
	.st7{fill:#B7B7B7;}
	.st8{stroke:#000000;stroke-width:3.8815;stroke-miterlimit:10;}
	.st9{fill:#B7B7B7;stroke:#000000;stroke-width:1.9408;stroke-miterlimit:10;}
	.st10{fill:#E8E8E8;}
	.st11{fill:#E2E2E2;stroke:#000000;stroke-width:1.9408;stroke-miterlimit:10;}
	.st12{fill:#5891B7;}
	.st13{fill:#FFFFFF;}
	.st14{fill:#4C4C4C;}
	.st15{display:inline;fill:none;stroke:#000000;stroke-width:1.9408;stroke-miterlimit:10;}
	.st16{display:inline;stroke:#000000;stroke-width:1.9408;stroke-miterlimit:10;}
	.st17{display:inline;fill:#4389AF;}
	.st18{display:inline;}
	.st19{fill:#53B2DB;}
</style>
<g id="Layer_1" class="st0">
	
		<image style="display:inline;overflow:visible;" width="495" height="263" xlink:href="../../../../fetch-gameshark/src/images/shark/46-469681_jaws-movie-image-with-logo-and-character-if.png"  transform="matrix(1.7535 0 0 1.7535 -4982.8281 -1242.2874)">
	</image>
</g>
<g id="Layer_2" class="st0">
	<rect x="-5570.2" y="-1307.7" class="st1" width="1565.1" height="823.6"/>
	<path class="st2" d="M-4664.7-802.5c-1.4-4-2.3-7.7-3.2-11.3h-0.2c-0.9,3.7-1.9,7.5-3.1,11.2l-6.1,17.9h18.7L-4664.7-802.5z
		 M-4617.1-815c-3.5,0-6.2,0.3-7.5,0.6v24.1c1.7,0.5,4,0.7,6.6,0.7c9.7,0,15.5-4.7,15.5-13.3C-4602.5-811-4608.3-815-4617.1-815z
		 M-4617.1-815c-3.5,0-6.2,0.3-7.5,0.6v24.1c1.7,0.5,4,0.7,6.6,0.7c9.7,0,15.5-4.7,15.5-13.3C-4602.5-811-4608.3-815-4617.1-815z
		 M-4664.7-802.5c-1.4-4-2.3-7.7-3.2-11.3h-0.2c-0.9,3.7-1.9,7.5-3.1,11.2l-6.1,17.9h18.7L-4664.7-802.5z M-4664.7-802.5
		c-1.4-4-2.3-7.7-3.2-11.3h-0.2c-0.9,3.7-1.9,7.5-3.1,11.2l-6.1,17.9h18.7L-4664.7-802.5z M-4617.1-815c-3.5,0-6.2,0.3-7.5,0.6v24.1
		c1.7,0.5,4,0.7,6.6,0.7c9.7,0,15.5-4.7,15.5-13.3C-4602.5-811-4608.3-815-4617.1-815z M-4617.1-815c-3.5,0-6.2,0.3-7.5,0.6v24.1
		c1.7,0.5,4,0.7,6.6,0.7c9.7,0,15.5-4.7,15.5-13.3C-4602.5-811-4608.3-815-4617.1-815z M-4664.7-802.5c-1.4-4-2.3-7.7-3.2-11.3h-0.2
		c-0.9,3.7-1.9,7.5-3.1,11.2l-6.1,17.9h18.7L-4664.7-802.5z M-4664.7-802.5c-1.4-4-2.3-7.7-3.2-11.3h-0.2c-0.9,3.7-1.9,7.5-3.1,11.2
		l-6.1,17.9h18.7L-4664.7-802.5z M-4617.1-815c-3.5,0-6.2,0.3-7.5,0.6v24.1c1.7,0.5,4,0.7,6.6,0.7c9.7,0,15.5-4.7,15.5-13.3
		C-4602.5-811-4608.3-815-4617.1-815z M-4454.1-802.5c-1.4-4-2.3-7.7-3.2-11.3h-0.2c-0.9,3.7-1.9,7.5-3.1,11.2l-6.1,17.9h18.7
		L-4454.1-802.5z M-4406.1-815.2c-3.9,0-6.6,0.4-7.9,0.7v22.6h8.2c8.6,0,14-4.7,14-11.8C-4391.9-811.6-4397.7-815.1-4406.1-815.2z
		 M-4406.1-815.2c-3.9,0-6.6,0.4-7.9,0.7v22.6h8.2c8.6,0,14-4.7,14-11.8C-4391.9-811.6-4397.7-815.1-4406.1-815.2z M-4454.1-802.5
		c-1.4-4-2.3-7.7-3.2-11.3h-0.2c-0.9,3.7-1.9,7.5-3.1,11.2l-6.1,17.9h18.7L-4454.1-802.5z M-4617.1-815c-3.5,0-6.2,0.3-7.5,0.6v24.1
		c1.7,0.5,4,0.7,6.6,0.7c9.7,0,15.5-4.7,15.5-13.3C-4602.5-811-4608.3-815-4617.1-815z M-4664.7-802.5c-1.4-4-2.3-7.7-3.2-11.3h-0.2
		c-0.9,3.7-1.9,7.5-3.1,11.2l-6.1,17.9h18.7L-4664.7-802.5z M-5353.7-1105.9v388.1h157.4c30-83.5,108.8-253.4,279.7-365.3
		c0,0-33.6,249.8,39.4,365.3h714v-388.1H-5353.7z M-4818.9-764.6c4.9,0,9.9-1,13.1-2.6l1.6,6.3c-2.9,1.5-8.8,2.9-16.4,2.9
		c-17.5,0-30.6-11-30.6-31.4c0-19.4,13.2-32.6,32.4-32.6c7.7,0,12.6,1.7,14.7,2.8l-1.9,6.5c-3-1.5-7.4-2.6-12.5-2.6
		c-14.5,0-24.2,9.3-24.2,25.6C-4842.8-774.4-4834-764.6-4818.9-764.6z M-4748.1-758.9h-8.1v-29.1h-30v29.1h-8v-62h8v25.9h30v-25.9
		h8.1V-758.9z M-4699.3-758.9h-34.9v-62h33.5v6.7h-25.5v19.6h24.1v6.6h-24.1v22.4h26.9V-758.9z M-4650.3-758.9l-6.6-19.5h-22
		l-6.4,19.5h-8.3l21.1-62h9.7l21.2,62H-4650.3z M-4599.2-789.9c-4.2,4.5-11.1,6.8-19,6.8c-2.4,0-4.6-0.1-6.4-0.6v24.8h-8v-61.3
		c3.9-0.6,8.9-1.2,15.4-1.2c7.9,0,13.7,1.8,17.4,5.2c3.4,2.9,5.4,7.5,5.4,13C-4594.5-797.6-4596.1-793.2-4599.2-789.9z M-4571-757.9
		c-6,0-12.5-1.7-15.8-3.9l2-6.7c3.6,2.2,8.8,4,14.4,4c8.2,0,13-4.3,13-10.6c0-5.8-3.3-9.1-11.7-12.3c-10.1-3.6-16.4-8.8-16.4-17.6
		c0-9.7,8-16.8,20.1-16.8c6.3,0,10.9,1.5,13.7,3l-2.2,6.5c-2-1.1-6.2-2.9-11.8-2.9c-8.5,0-11.7,5.1-11.7,9.3c0,5.8,3.8,8.6,12.3,12
		c10.5,4.1,15.8,9.1,15.8,18.2C-4549.3-766.2-4556.4-757.9-4571-757.9z M-4492.3-758.9h-8.1v-29.1h-30v29.1h-8v-62h8v25.9h30v-25.9
		h8.1V-758.9z M-4439.7-758.9l-6.6-19.5h-22l-6.4,19.5h-8.3l21.1-62h9.7l21.2,62H-4439.7z M-4390-758.9c-1-1.7-2.4-7.1-4.1-14.8
		c-1.8-8.5-5.1-11.8-12.4-12h-7.6v26.9h-8V-820c4.1-0.8,9.8-1.3,15.4-1.3c8.6,0,14.1,1.6,17.9,5.1c3.1,2.8,4.9,7,4.9,11.8
		c0,8.2-5.2,13.6-11.7,15.8v0.3c4.8,1.7,7.6,6.1,9.1,12.5c2,8.7,3.5,14.6,4.8,17H-4390z M-4338.2-758.9l-20.4-30.5l-5.9,6.8v23.6h-8
		v-62h8v29.9h0.3c1.7-2.4,3.3-4.6,4.9-6.6l19-23.3h9.9l-22.4,26.3l24.2,35.7H-4338.2z M-4391.9-803.6c0-8-5.8-11.5-14.3-11.6
		c-3.9,0-6.6,0.4-7.9,0.7v22.6h8.2C-4397.3-791.8-4391.9-796.5-4391.9-803.6z M-4457.3-813.8h-0.2c-0.9,3.7-1.9,7.5-3.1,11.2
		l-6.1,17.9h18.7l-6.1-17.8C-4455.5-806.5-4456.4-810.2-4457.3-813.8z M-4617.1-815c-3.5,0-6.2,0.3-7.5,0.6v24.1
		c1.7,0.5,4,0.7,6.6,0.7c9.7,0,15.5-4.7,15.5-13.3C-4602.5-811-4608.3-815-4617.1-815z M-4667.9-813.8h-0.2
		c-0.9,3.7-1.9,7.5-3.1,11.2l-6.1,17.9h18.7l-6.1-17.8C-4666-806.5-4667-810.2-4667.9-813.8z M-4664.7-802.5
		c-1.4-4-2.3-7.7-3.2-11.3h-0.2c-0.9,3.7-1.9,7.5-3.1,11.2l-6.1,17.9h18.7L-4664.7-802.5z M-4617.1-815c-3.5,0-6.2,0.3-7.5,0.6v24.1
		c1.7,0.5,4,0.7,6.6,0.7c9.7,0,15.5-4.7,15.5-13.3C-4602.5-811-4608.3-815-4617.1-815z M-4454.1-802.5c-1.4-4-2.3-7.7-3.2-11.3h-0.2
		c-0.9,3.7-1.9,7.5-3.1,11.2l-6.1,17.9h18.7L-4454.1-802.5z M-4454.1-802.5c-1.4-4-2.3-7.7-3.2-11.3h-0.2c-0.9,3.7-1.9,7.5-3.1,11.2
		l-6.1,17.9h18.7L-4454.1-802.5z M-4617.1-815c-3.5,0-6.2,0.3-7.5,0.6v24.1c1.7,0.5,4,0.7,6.6,0.7c9.7,0,15.5-4.7,15.5-13.3
		C-4602.5-811-4608.3-815-4617.1-815z M-4664.7-802.5c-1.4-4-2.3-7.7-3.2-11.3h-0.2c-0.9,3.7-1.9,7.5-3.1,11.2l-6.1,17.9h18.7
		L-4664.7-802.5z M-4664.7-802.5c-1.4-4-2.3-7.7-3.2-11.3h-0.2c-0.9,3.7-1.9,7.5-3.1,11.2l-6.1,17.9h18.7L-4664.7-802.5z
		 M-4617.1-815c-3.5,0-6.2,0.3-7.5,0.6v24.1c1.7,0.5,4,0.7,6.6,0.7c9.7,0,15.5-4.7,15.5-13.3C-4602.5-811-4608.3-815-4617.1-815z
		 M-4617.1-815c-3.5,0-6.2,0.3-7.5,0.6v24.1c1.7,0.5,4,0.7,6.6,0.7c9.7,0,15.5-4.7,15.5-13.3C-4602.5-811-4608.3-815-4617.1-815z
		 M-4664.7-802.5c-1.4-4-2.3-7.7-3.2-11.3h-0.2c-0.9,3.7-1.9,7.5-3.1,11.2l-6.1,17.9h18.7L-4664.7-802.5z M-4664.7-802.5
		c-1.4-4-2.3-7.7-3.2-11.3h-0.2c-0.9,3.7-1.9,7.5-3.1,11.2l-6.1,17.9h18.7L-4664.7-802.5z M-4664.7-802.5c-1.4-4-2.3-7.7-3.2-11.3
		h-0.2c-0.9,3.7-1.9,7.5-3.1,11.2l-6.1,17.9h18.7L-4664.7-802.5z"/>
</g>
<g id="Layer_3">
	<path class="st3" d="M-3186-210.6"/>
	<path class="st3" d="M-3084.2-201.3"/>
	<path class="st3" d="M-3325.3-15.7"/>
	<path class="st4" d="M-3186-210.6"/>
	<path class="st4" d="M-3084.2-201.3"/>
	<path class="st3" d="M-3361.3-82.9"/>
	<path class="st3" d="M-3361.3-214.8c-2.6-1.5-5.4-2.1-8.3-2.2"/>
	<path class="st3" d="M-3403.1-201.3C-3403.1-201.3-3403.1-201.3-3403.1-201.3"/>
	<path class="st3" d="M-3372.8-149.3C-3372.8-149.3-3372.8-149.3-3372.8-149.3"/>
	<path class="st3" d="M-3206.2-32.4c-3.5-20.3-14.6-92.6,1-119.5"/>
	<path class="st5" d="M-2836.7-2333.5"/>
	<path class="st5" d="M-2511.8-2477"/>
	<path class="st5" d="M-2483-2266.1"/>
	<path class="st5" d="M-2423.4-2451.1"/>
	<path class="st5" d="M-2381.1-2256.8"/>
	<path class="st5" d="M-2363.7-2409.2"/>
	<path class="st5" d="M-2342.1-2311.6"/>
	<path class="st5" d="M-2622.2-2071.2"/>
	<path d="M-2483-2266.1"/>
	<path d="M-2423.4-2451.1"/>
	<rect x="-4459.1" y="-197.3" class="st6" width="1913.5" height="610.1"/>
	<path d="M-2381.1-2256.8"/>
	<path d="M-2363.7-2409.2"/>
	<path d="M-2342.1-2311.6"/>
	<path class="st7" d="M-2780-2551c23.1-2.4,34.4-7.3,35.1-7.6L-2780-2551z M-2766.4-2334c0.6,0.2,1.1,0.4,1.7,0.5
		C-2765.3-2333.7-2765.8-2333.9-2766.4-2334z"/>
	<path class="st5" d="M-2846.9-2345.6"/>
	<path class="st5" d="M-2658.3-2138.4"/>
	<path class="st5" d="M-2804.7-2343"/>
	<path class="st5" d="M-2806.3-2343"/>
	<path class="st5" d="M-2832.6-2345.6"/>
	<path class="st5" d="M-2832.1-2340.8"/>
	<path class="st5" d="M-2795.3-2341.3"/>
	<path class="st5" d="M-2795-2341.3"/>
	<path class="st5" d="M-2766.4-2334.1"/>
	<path class="st5" d="M-2788.3-2326.9"/>
	<path class="st5" d="M-2760.6-2300.9C-2760.7-2300.9-2760.7-2300.9-2760.6-2300.9"/>
	<path class="st5" d="M-2755.3-2316.3"/>
	<path class="st5" d="M-2658.3-2270.3c-2.6-1.5-5.4-2.1-8.3-2.2"/>
	<path class="st5" d="M-2700.1-2256.9C-2700.1-2256.8-2700.1-2256.8-2700.1-2256.9"/>
	<line class="st5" x1="-2681.5" y1="-2291.8" x2="-2683.4" y2="-2288.2"/>
	<path class="st5" d="M-2669.7-2204.8C-2669.7-2204.8-2669.7-2204.8-2669.7-2204.8"/>
	<path class="st7" d="M-1986.9-2474.7c-171.4-153.7-368.9-48.5-418.6-41.4c-29.1,4.2-233.3-15.1-259.5-38.5
		c-0.4-0.4-0.6-0.6-0.6-0.6c-23.7-23.7-63.9-9.5-63.9-9.5l-15.4,5.9c-153.8-33.8-187.9,3.6-187.9,3.6s-29.7,65.7,85.9,209.5
		c0,0,5.2-0.4,14.3-0.1l0.7,0.1l1.3,10.8c0,0,8.3-6.8,18.7-8.9l7.3,0.7c3.1,0.5,6.4,1,9.7,1.7l0.3,0.1l-2.1,20.3
		c0,0,9.1-12.1,22.8-15l7.5,1.9c0.6,0.1,1.1,0.3,1.7,0.5c4.5,1.5,9.1,3.1,13.7,4.9l-9.7,27.7c0.4-0.3,17.9-17.6,34-16.5
		c0.4,0.1,0.7,0.3,1,0.5c3.1,1.6,6.3,3.4,9.4,5.3l0,0l-2.8,6.9l-9.9,24.5c0,0,28.1-22,35.8-15.9c3.3,2.5,6.6,5.1,9.8,7.9l-16.7,31.4
		c0.5-0.5,18.2-16.2,33.5-15.7c2,2.1,4.1,4.3,6.1,6.5l-24.9,31.9c0,0,34.6-20.5,43.6-8.7c0.1,0.1,0.1,0.2,0.2,0.3
		c0.1,0.1,0.2,0.2,0.3,0.4c1.1,1.6,2.3,3.2,3.4,4.8l-31.7,32.6c0.8-0.4,32.7-15.5,47.5-6.6c1.2,2.2,2.3,4.4,3.5,6.6
		c0.6,1.2,1.2,2.5,1.9,3.7l-34.1,23.4c0,0,27.9-4.2,44.2-0.5c0.1,0.1,0.1,0.3,0.2,0.4c0,0,10,32.4-51.6,39.4c0,0,0,0,0,0
		c0.5,1.3,23.1,54.5,155.1,50.5c0.5,2.6,0.8,4.3,0.9,5c0,0.1,0,0.2,0,0.2c0,0.1,0,0.1,0,0.1c17.7,105.4,85,204.2,85,204.2
		c28-183.5,51.9-175.3,51.9-175.3c180.3-23.5,164.7,136.7,164.7,136.7l-24.9,33.1l9.3,5.7c2,72-97.3,49.6-97.3,49.6l-193.4-60.9
		c-138-19.3-190.8,40.5-190.8,40.5l80,36l30.1-15.8c109.1,23.8,238.2,103.8,238.2,103.8c52.7-3.2,45.3,1.4,45.3,1.4
		c-4.3,6.2-25.5,12.2-25.5,12.2c26.1,22.4,43.9,77.4,51.9,99c6.9,18.7,11,119.6,11,119.6c62.1-47.9,75.2-116.3,75.2-116.3
		c-10.3-74-7.4-116.5-7.4-116.5c27.8-70.3,66.9-89.9,66.9-89.9c19.3-1.4,32.3,16.5,32.3,16.5c6.8-11.6,9.1-61.3,9.1-61.3
		c81.7-109.1,71.8-220.7,71.8-220.7c-2.4-74.4-35.5-154.9-97-223.4c-61.5-68.6-46.1-92.2-46.1-92.2
		C-2068.3-2497.3-1988.5-2475.1-1986.9-2474.7z M-2780-2551l35.1-7.6C-2745.5-2558.3-2756.9-2553.4-2780-2551z M-2692.1-2477.1
		c-9.7,0-17.5-7.9-17.5-17.5c0-9.7,7.8-17.5,17.5-17.5c9.6,0,17.5,7.8,17.5,17.5C-2674.6-2485-2682.5-2477.1-2692.1-2477.1z
		 M-2289.7-2225l-108.6-167C-2398.3-2392-2275.8-2333.1-2289.7-2225z M-2258.2-2257.9l-63.4-113.3
		C-2320.6-2370.5-2251.6-2322.3-2258.2-2257.9z M-2276-2357.8c0,0,35.1,17.9,36.5,55.2L-2276-2357.8z"/>
	<path class="st5" d="M-2503.2-2088c-3.5-20.3-14.6-92.6,1-119.5"/>
	<path class="st5" d="M-2665-2554.5c3.7,3.4,23.6,22,32.8,25.5"/>
	<path class="st3" d="M-3978.8-2439.1"/>
	<path class="st3" d="M-3816.8-2600.2c0,9.6-7.8,17.5-17.5,17.5c-9.7,0-17.5-7.9-17.5-17.5c0-9.7,7.8-17.5,17.5-17.5
		C-3824.6-2617.7-3816.8-2609.9-3816.8-2600.2z"/>
	<path class="st3" d="M-3654-2582.6"/>
	<path class="st3" d="M-3625.1-2371.6"/>
	<path class="st3" d="M-3565.6-2556.7"/>
	<path class="st3" d="M-3523.3-2362.4"/>
	<path class="st3" d="M-3505.8-2514.8"/>
	<path class="st3" d="M-3484.3-2417.2"/>
	<path class="st3" d="M-3764.4-2176.8"/>
	<path class="st8" d="M-3816.8-2600.2c0,9.6-7.8,17.5-17.5,17.5c-9.7,0-17.5-7.9-17.5-17.5c0-9.7,7.8-17.5,17.5-17.5
		C-3824.6-2617.7-3816.8-2609.9-3816.8-2600.2z"/>
	<path class="st4" d="M-3625.1-2371.6"/>
	<path class="st4" d="M-3565.6-2556.7"/>
	<path class="st4" d="M-3523.3-2362.4"/>
	<path class="st4" d="M-3505.8-2514.8"/>
	<path class="st4" d="M-3484.3-2417.2"/>
	<path class="st9" d="M-3908.5-2439.6c0.6,0.2,1.1,0.4,1.7,0.5C-3907.4-2439.3-3908-2439.5-3908.5-2439.6z M-3922.1-2656.6
		c23.1-2.4,34.4-7.3,35.1-7.6L-3922.1-2656.6z M-3540.4-2497.6l108.6,167C-3417.9-2438.7-3540.4-2497.6-3540.4-2497.6z
		 M-3463.7-2476.8l63.4,113.3C-3393.7-2427.9-3462.7-2476.1-3463.7-2476.8z M-3418.2-2463.4l36.5,55.2
		C-3383.1-2445.5-3418.2-2463.4-3418.2-2463.4z"/>
	<path class="st3" d="M-3989-2451.2"/>
	<path class="st3" d="M-3800.4-2244"/>
	<rect x="-1868" y="-3394.7" class="st10" width="3547.2" height="2301.8"/>
	<path class="st11" d="M-3431.8-2330.6l-108.6-167C-3540.4-2497.6-3417.9-2438.7-3431.8-2330.6z"/>
	<path class="st11" d="M-3400.4-2363.5l-63.4-113.3C-3462.7-2476.1-3393.7-2427.9-3400.4-2363.5z"/>
	<path class="st11" d="M-3381.6-2408.2l-36.5-55.2C-3418.2-2463.4-3383.1-2445.5-3381.6-2408.2z"/>
	<path class="st3" d="M-3946.8-2448.6"/>
	<path class="st3" d="M-3948.4-2448.6"/>
	<path class="st3" d="M-3974.8-2451.1"/>
	<path class="st3" d="M-3974.2-2446.4"/>
	<path class="st3" d="M-3937.4-2446.9"/>
	<path class="st12" d="M1256-2023.1H-991c-41.3,0-74.7-33.5-74.7-74.7v-190.9c0-41.3,33.5-74.7,74.7-74.7h2247
		c41.3,0,74.7,33.5,74.7,74.7v190.9C1330.7-2056.6,1297.2-2023.1,1256-2023.1z"/>
	<path class="st3" d="M-3937.1-2446.9"/>
	<path class="st3" d="M-3908.5-2439.6"/>
	<path class="st3" d="M-3930.5-2432.4"/>
	<path class="st3" d="M-3902.8-2406.5C-3902.8-2406.5-3902.8-2406.5-3902.8-2406.5"/>
	<path class="st3" d="M-3897.4-2421.9"/>
	<path class="st3" d="M-3800.4-2375.9c-2.6-1.5-5.4-2.1-8.3-2.2"/>
	<path class="st3" d="M-3842.2-2362.4C-3842.2-2362.4-3842.2-2362.4-3842.2-2362.4"/>
	<line class="st3" x1="-3823.6" y1="-2397.4" x2="-3825.5" y2="-2393.8"/>
	<path class="st3" d="M-3811.9-2310.4C-3811.9-2310.4-3811.9-2310.4-3811.9-2310.4"/>
	<path class="st9" d="M-3129.1-2580.2c-171.4-153.7-368.9-48.5-418.6-41.4c-29.1,4.2-233.3-15.1-259.5-38.5
		c-0.4-0.4-0.6-0.6-0.6-0.6c-23.7-23.7-63.9-9.5-63.9-9.5l-15.4,5.9c-153.8-33.8-187.9,3.6-187.9,3.6s-29.7,65.7,85.9,209.5
		c0,0,5.2-0.4,14.3-0.1l0.7,0.1l1.3,10.8c0,0,8.3-6.8,18.7-8.9l7.3,0.7c3.1,0.5,6.3,1,9.7,1.7l0.3,0.1l-2.1,20.3
		c0,0,9.1-12.1,22.8-15l7.5,1.9c0.6,0.1,1.1,0.3,1.7,0.5c4.5,1.5,9.1,3.1,13.7,4.9l-9.7,27.6c0.4-0.3,17.9-17.6,34-16.5
		c0.4,0.1,0.7,0.3,1,0.5c3.1,1.7,6.3,3.4,9.4,5.3l0,0l-2.8,6.9l-9.9,24.5c0,0,28.1-22,35.8-15.9c3.3,2.5,6.5,5.1,9.8,7.9l-16.7,31.4
		c0.5-0.5,18.2-16.2,33.5-15.7c2,2.1,4.1,4.3,6.1,6.5l-24.9,31.9c0,0,34.6-20.5,43.6-8.7c0.1,0.1,0.1,0.2,0.2,0.3
		c0.1,0.1,0.2,0.2,0.3,0.4c1.2,1.6,2.3,3.2,3.4,4.8l-31.7,32.6c0.8-0.4,32.7-15.5,47.5-6.6c1.2,2.2,2.3,4.4,3.5,6.6
		c0.6,1.2,1.2,2.5,1.9,3.7l-34.1,23.4c0,0,27.9-4.2,44.2-0.5c0.1,0.1,0.1,0.3,0.2,0.4c0,0,10,32.4-51.6,39.4c0,0,0,0,0,0
		c0.5,1.3,23.1,54.5,155.1,50.5c0.4,2.6,0.8,4.3,0.9,5c0,0.1,0,0.2,0,0.2c0,0.1,0,0.1,0,0.1c17.7,105.4,85,204.2,85,204.2
		c28-183.5,51.9-175.3,51.9-175.3c180.3-23.5,164.7,136.7,164.7,136.7l-24.9,33.1l9.3,5.7c2,72-97.3,49.6-97.3,49.6l-193.4-60.9
		c-138-19.3-190.8,40.5-190.8,40.5l80,36l30.1-15.8c109.2,23.8,238.2,103.8,238.2,103.8c52.7-3.2,45.3,1.4,45.3,1.4
		c-4.3,6.2-25.5,12.2-25.5,12.2c26.1,22.4,43.9,77.4,51.9,99c6.9,18.7,11,119.6,11,119.6c62.1-47.9,75.1-116.3,75.1-116.3
		c-10.3-74-7.4-116.5-7.4-116.5c27.8-70.3,66.9-89.9,66.9-89.9c19.3-1.4,32.3,16.5,32.3,16.5c6.8-11.6,9.1-61.3,9.1-61.3
		c81.7-109.2,71.8-220.7,71.8-220.7c-2.4-74.4-35.5-154.9-97-223.4c-61.5-68.6-46.1-92.2-46.1-92.2
		C-3210.4-2602.9-3130.7-2580.7-3129.1-2580.2z M-3922.1-2656.6l35.1-7.6C-3887.7-2663.9-3899-2659-3922.1-2656.6z M-3834.3-2582.6
		c-9.7,0-17.5-7.9-17.5-17.5c0-9.7,7.8-17.5,17.5-17.5c9.6,0,17.5,7.8,17.5,17.5C-3816.8-2590.6-3824.6-2582.6-3834.3-2582.6z
		 M-3431.8-2330.6l-108.6-167C-3540.4-2497.6-3417.9-2438.7-3431.8-2330.6z M-3400.4-2363.5l-63.4-113.3
		C-3462.7-2476.1-3393.7-2427.9-3400.4-2363.5z M-3418.2-2463.4c0,0,35.1,17.9,36.5,55.2L-3418.2-2463.4z"/>
	<path class="st3" d="M-3645.3-2193.5c-3.5-20.3-14.6-92.6,1-119.5"/>
	<path class="st11" d="M-3887-2664.2c-0.7,0.3-12,5.2-35.1,7.6L-3887-2664.2z"/>
	<path class="st3" d="M-3807.1-2660.1c3.6,3.4,23.6,22,32.8,25.5"/>
	<path class="st3" d="M-4057.1-2492.7"/>
	<g>
		<path class="st3" d="M-5117.8-2423.4"/>
		<path class="st3" d="M-4955.8-2584.5c0,9.6-7.8,17.5-17.5,17.5c-9.7,0-17.5-7.9-17.5-17.5c0-9.7,7.8-17.5,17.5-17.5
			C-4963.7-2602-4955.8-2594.2-4955.8-2584.5z"/>
		<path class="st3" d="M-4793-2566.9"/>
		<path class="st3" d="M-4764.1-2355.9"/>
		<path class="st3" d="M-4704.6-2541"/>
		<path class="st3" d="M-4662.3-2346.7"/>
		<path class="st3" d="M-4644.8-2499.1"/>
		<path class="st3" d="M-4623.3-2401.5"/>
		<path class="st3" d="M-4903.4-2161.1"/>
		<path class="st8" d="M-4955.8-2584.5c0,9.6-7.8,17.5-17.5,17.5c-9.7,0-17.5-7.9-17.5-17.5c0-9.7,7.8-17.5,17.5-17.5
			C-4963.7-2602-4955.8-2594.2-4955.8-2584.5z"/>
		<path class="st4" d="M-4764.1-2355.9"/>
		<path class="st4" d="M-4704.6-2541"/>
		<path class="st4" d="M-4662.3-2346.7"/>
		<path class="st4" d="M-4644.8-2499.1"/>
		<path class="st4" d="M-4623.3-2401.5"/>
		<path class="st3" d="M-5127.6-2435.7 M-5163.1-2498.3 M-5205.7-2571.7 M-5213.9-2623.7 M-4300-2170.9
			c-2.4-74.4-35.5-154.9-97-223.4c-61.5-68.6-46.1-92.2-46.1-92.2c94.6-101.7,175-78,175-78c-171.4-153.7-368.9-48.5-418.6-41.4
			c-29.3,4.2-236.5-15.4-260.1-39c-23.7-23.7-63.9-9.5-63.9-9.5l-15.4,5.9c-153.8-33.8-187.9,3.6-187.9,3.6s-29.7,65.7,85.9,209.5
			 M-4783.8-2175c17,106.4,85.4,206.7,85.4,206.7c28-183.5,51.9-175.3,51.9-175.3c180.3-23.5,164.7,136.7,164.7,136.7l-24.9,33.1
			l9.3,5.7c2,72-97.3,49.6-97.3,49.6l-193.4-60.9c-138-19.3-190.8,40.5-190.8,40.5l80,36l30.1-15.8
			c109.1,23.8,238.2,103.8,238.2,103.8c52.7-3.2,45.3,1.4,45.3,1.4c-4.3,6.2-25.5,12.2-25.5,12.2c26.1,22.4,43.9,77.4,51.9,99
			c6.9,18.7,11,119.6,11,119.6c62.1-47.9,75.1-116.3,75.1-116.3c-10.2-74-7.4-116.5-7.4-116.5c27.8-70.3,66.9-89.9,66.9-89.9
			c19.3-1.4,32.3,16.5,32.3,16.5c6.8-11.6,9.1-61.2,9.1-61.2c81.7-109.1,71.8-220.7,71.8-220.7 M-4939.4-2228.3
			c0,0,21.5,54.5,155.1,50.5 M-4939.4-2228.3 M-5128.1-2435.4c0,0,167.8-13.6,240.3,167.8c0,0,10,32.4-51.6,39.4 M-4925.8-2287.5
			 M-4973.3-2566.9c-9.7,0-17.5-7.9-17.5-17.5c0-9.7,7.8-17.5,17.5-17.5c9.6,0,17.5,7.8,17.5,17.5
			C-4955.8-2574.9-4963.7-2566.9-4973.3-2566.9z M-4808-2549.6 M-4755.6-2355.9 M-4764.1-2557.6 M-4704-2346.7 M-4704.6-2541
			 M-4662.3-2346.7 M-4644.8-2499.1 M-4623.3-2401.5"/>
		<path class="st3" d="M-5128.1-2435.4"/>
		<path class="st3" d="M-4939.4-2228.3"/>
		<path class="st11" d="M-4570.9-2314.9c13.9-108.1-108.6-167-108.6-167"/>
		<path class="st11" d="M-4602.8-2461.1c0,0,70.1,48.5,63.4,113.3"/>
		<path class="st11" d="M-4557.2-2447.7c0,0,35,17.9,36.5,55.2"/>
		<path class="st3" d="M-5113.8-2435.4l1.4,12.1c0,0,17.9-11,26.5-9.5"/>
		<path class="st3" d="M-5076.1-2431.2l-2.6,22.8c0,0,18.4-20.6,32.9-15"/>
		<path class="st3" d="M-5032.2-2418.4l-9.7,27.6c0,0,24.6-21.9,35-16"/>
		<path class="st3" d="M-4997.4-2401.5l-12.7,31.4c0,0,28.1-22,35.8-15.8"/>
		<path class="st3" d="M-4968.9-2381.6l-18.6,35c0,0,25.2-22.8,41.8-13.5"/>
		<path class="st3" d="M-4941.7-2355.9l-24.9,31.9c0,0,35.8-21.2,44-8.1"/>
		<path class="st3" d="M-4919.2-2327.3l-31.7,32.6c0,0,32.5-15.6,47.5-6.6"/>
		<path class="st3" d="M-4900-2294.7l-39.5,27.1c0,0,39.6-6,52.1,2.6"/>
		<path class="st3" d="M-4783.4-2172.4c0,0-18.1-93.4,0-124.9"/>
		<path class="st11" d="M-5026-2648.5c0,0-11.3,5.1-35.2,7.6"/>
		<path class="st3" d="M-4946.7-2645c0,0,23.2,22.2,33.4,26"/>
		<path class="st3" d="M-5162.4-2481.9"/>
	</g>
	<path class="st7" d="M-2600.8-40.7c-189.7-170.1-408.3-53.7-463.3-45.8c-32.2,4.6-258.2-16.7-287.2-42.6c-0.4-0.4-0.6-0.6-0.6-0.6
		c-26.2-26.2-70.7-10.5-70.7-10.5l-17,6.5c-170.2-37.4-208,4-208,4s-32.9,72.7,95,231.9c0,0,5.8-0.5,15.8-0.1l0.8,0.1l1.4,12
		c0,0,9.2-7.5,20.7-9.9l8.1,0.8c3.4,0.5,7,1.2,10.7,1.9l0.3,0.1l-2.3,22.4c0,0,10.1-13.3,25.2-16.6l8.3,2.1c0.6,0.2,1.3,0.4,1.9,0.6
		c5,1.6,10,3.4,15.2,5.5l-10.7,30.6c0.4-0.4,19.8-19.5,37.6-18.2c0.4,0.1,0.8,0.3,1.1,0.5c3.5,1.8,6.9,3.8,10.4,5.8l0,0l-3.1,7.7
		l-11,27.1c0,0,31.1-24.3,39.6-17.5c3.6,2.8,7.2,5.7,10.8,8.7l-18.5,34.7c0.6-0.5,20.1-17.9,37.1-17.4c2.2,2.3,4.5,4.7,6.7,7.2
		l-27.5,35.3c0,0,38.3-22.7,48.2-9.7c0.1,0.1,0.2,0.2,0.2,0.3c0.1,0.1,0.2,0.3,0.3,0.4c1.3,1.8,2.5,3.5,3.8,5.4l-35.1,36.1
		c0.9-0.4,36.2-17.2,52.5-7.3c1.3,2.4,2.6,4.8,3.8,7.3c0.7,1.4,1.4,2.7,2,4.1l-37.7,25.9c0,0,30.8-4.7,49-0.6
		c0.1,0.2,0.1,0.3,0.2,0.5c0,0,11,35.9-57.1,43.6c0,0,0,0,0,0c0.6,1.4,25.6,60.3,171.7,55.9c0.5,2.8,0.9,4.8,1,5.6
		c0,0.1,0,0.2,0,0.3c0,0.1,0,0.1,0,0.1c19.6,116.7,94,226,94,226c31-203.1,57.4-194,57.4-194c199.6-26,182.3,151.3,182.3,151.3
		l-27.6,36.7l10.3,6.3c2.2,79.7-107.7,54.9-107.7,54.9l-214-67.4c-152.8-21.3-211.2,44.8-211.2,44.8l88.5,39.9l33.3-17.5
		c120.8,26.4,263.6,114.9,263.6,114.9c58.3-3.5,50.2,1.5,50.2,1.5c-4.7,6.9-28.3,13.5-28.3,13.5c28.9,24.7,48.6,85.7,57.5,109.6
		c7.6,20.7,12.2,132.4,12.2,132.4c68.7-53,83.2-128.7,83.2-128.7c-11.3-81.9-8.2-129-8.2-129c30.8-77.8,74.1-99.5,74.1-99.5
		c21.3-1.5,35.7,18.2,35.7,18.2c7.6-12.9,10-67.8,10-67.8c90.4-120.8,79.5-244.3,79.5-244.3c-2.7-82.4-39.3-171.4-107.3-247.3
		c-68.1-75.9-51-102.1-51-102.1C-2690.9-65.8-2602.6-41.2-2600.8-40.7z M-3478.6-125.3l38.9-8.4
		C-3440.4-133.3-3453-127.9-3478.6-125.3z M-3381.3-43.4c-10.7,0-19.4-8.8-19.4-19.4c0-10.7,8.7-19.4,19.4-19.4
		c10.7,0,19.3,8.7,19.3,19.4C-3362-52.1-3370.7-43.4-3381.3-43.4z M-2935.9,235.6l-120.2-184.9
		C-3056.1,50.7-2920.5,115.9-2935.9,235.6z M-2901.1,199.2l-70.1-125.4C-2970.1,74.6-2893.7,127.9-2901.1,199.2z M-2920.8,88.6
		c0,0,38.8,19.8,40.4,61.1L-2920.8,88.6z"/>
	<rect x="-4372.4" y="199.2" class="st5" width="1070.6" height="307.1"/>
	<text transform="matrix(1 0 0 1 -4372.3818 289.6543)" class="st7" style="font-family:'Verdana-Bold'; font-size:119px;">CHEAPSHARK</text>
	<rect x="-833.7" y="-2241.8" class="st5" width="1285.8" height="386"/>
	<text transform="matrix(1 0 0 1 -833.6836 -2124.7947)" class="st13" style="font-family:'Verdana-Bold'; font-size:154px;">CHEAPSHARK</text>
	<path class="st7" d="M920-2834.1c-225.3-47.5-343.8,142.3-383.2,173.3c-23.1,18.2-209.6,103.5-244,96.3c-0.5-0.1-0.8-0.2-0.8-0.2
		c-32.3-8.7-60.1,23.7-60.1,23.7l-10.4,12.8c-150.1,47.6-161,97-161,97s7.1,71.8,179.1,138.6c0,0,4.3-3,12.3-7.2l0.6-0.3l6.5,8.7
		c0,0,3.8-10,11.7-17.1l6.7-3c2.9-1.1,6-2.3,9.2-3.4l0.3-0.1l8.3,18.6c0,0,1.9-15,12.3-24.4l7.5-2.1c0.6-0.2,1.1-0.3,1.7-0.4
		c4.6-1,9.4-1.9,14.4-2.6l5.4,28.8c0.2-0.5,6.7-24.2,21.2-31.2c0.4-0.1,0.8-0.1,1.1-0.1c3.5-0.1,7.1-0.2,10.8-0.1l0,0l1,7.4
		l3.6,26.1c0,0,13.4-33.1,23.1-31.6c4.1,0.5,8.2,1.2,12.4,1.9l1.2,35.5c0.2-0.7,7.6-23.1,21.2-30.4c2.8,0.8,5.7,1.7,8.5,2.6
		l-5.6,40.1c0,0,19.8-35.1,33.4-29.3c0.1,0,0.2,0.1,0.3,0.1c0.1,0.1,0.3,0.1,0.4,0.2c1.8,0.8,3.6,1.6,5.4,2.5l-11.2,44.1
		c0.5-0.7,20.6-29.8,37.8-29.4c2.1,1.3,4.2,2.6,6.3,4c1.2,0.8,2.3,1.5,3.5,2.3l-17.8,37.3c0,0,22-17.6,38-22.6
		c0.1,0.1,0.2,0.2,0.4,0.3c0,0,24.8,23.1-25,59.9c0,0,0,0,0,0c1.1,0.8,47.2,35.6,159.6-33.8c1.7,2,2.8,3.3,3.3,3.9
		c0,0.1,0.1,0.1,0.2,0.2c0,0.1,0.1,0.1,0.1,0.1c68,82.5,175.6,134.4,175.6,134.4c-67.4-173-42.7-177.8-42.7-177.8
		c144.5-110.5,211,36.1,211,36.1l-5,41.2l10.9,0.3c37.7,61.4-59.5,91.6-59.5,91.6L762-2067.4c-129.2,52.3-145,130.4-145,130.4
		l87.3-8.8l18.2-28.8c106.5-33.9,258.2-29.1,258.2-29.1c44.1-29.1,40-21.5,40-21.5c-0.6,7.5-16,23.3-16,23.3
		c33.8,6.3,76.7,45.1,94.4,59.8c15.3,12.8,69.3,98.1,69.3,98.1c29.9-72.5,7-138.3,7-138.3c-45.8-59-64.6-97.3-64.6-97.3
		c-11.1-74.8,13-111.3,13-111.3c16-10.8,36.2-1.9,36.2-1.9c0.1-13.5-22.7-57.6-22.7-57.6c16.2-135.4-48.1-227.1-48.1-227.1
		c-39.3-63.3-108.1-116.4-195.6-145.1c-87.6-28.7-86-56.8-86-56.8C838.2-2813.1,918.4-2833.7,920-2834.1z M194.9-2504l26.6-24.1
		C221.1-2527.5,213.7-2517.6,194.9-2504z M308-2483.8c-8.4,4.8-19.1,1.9-24-6.4c-4.8-8.4-2-19.1,6.4-24c8.3-4.8,19.1-1.9,23.9,6.5
		C319.1-2499.4,316.3-2488.6,308-2483.8z M782.5-2466.6L605-2557C605-2557,740.5-2567.2,782.5-2466.6z M793.3-2510.8l-111.5-66.5
		C683-2577.2,766.9-2569.9,793.3-2510.8z M728-2588.4c0,0,39.3-2,59.2,29.5L728-2588.4z"/>
	<path class="st12" d="M2181.2,2438H-69.7c-40.2,0-72.8-32.6-72.8-72.8v-852.3c0-40.2,32.6-72.8,72.8-72.8h2250.9
		c40.2,0,72.8,32.6,72.8,72.8v852.3C2254,2405.4,2221.4,2438,2181.2,2438z"/>
	<g>
		<path class="st13" d="M68.3,742.3c-9.9,0-19.1-1.5-27.5-4.4c-8.4-2.9-15.6-7.3-21.7-13.1C13,719,8.3,711.7,5,703
			c-3.3-8.7-5-18.7-5-30.1c0-10.6,1.6-20.2,4.8-28.8c3.2-8.6,7.8-16,13.8-22.2c5.8-5.9,13-10.5,21.6-13.7c8.6-3.2,18-4.9,28.2-4.9
			c5.6,0,10.7,0.3,15.2,0.9c4.5,0.6,8.7,1.5,12.5,2.5c4,1.1,7.7,2.4,10.9,3.8c3.3,1.4,6.1,2.7,8.6,3.9v32.4h-4
			c-1.7-1.4-3.8-3.1-6.3-5.1c-2.5-2-5.4-3.9-8.7-5.8c-3.3-1.9-6.9-3.5-10.7-4.8c-3.8-1.3-7.9-2-12.3-2c-4.9,0-9.5,0.8-13.8,2.3
			c-4.4,1.5-8.4,4-12.1,7.6c-3.5,3.4-6.4,7.9-8.6,13.5c-2.2,5.6-3.3,12.4-3.3,20.4c0,8.4,1.2,15.4,3.5,21c2.4,5.6,5.3,10,8.9,13.3
			c3.7,3.3,7.7,5.6,12.2,7s8.9,2.1,13.3,2.1c4.2,0,8.3-0.6,12.4-1.9c4.1-1.3,7.9-2.9,11.4-5.1c2.9-1.7,5.7-3.6,8.2-5.5
			s4.6-3.7,6.2-5.1h3.6v32c-3.4,1.5-6.6,2.9-9.6,4.2c-3.1,1.3-6.3,2.5-9.6,3.4c-4.4,1.3-8.5,2.2-12.3,2.9
			C80.3,742,75,742.3,68.3,742.3z"/>
		<path class="st13" d="M260.9,739.7h-34.5v-58.9h-50.9v58.9H141V605.9h34.5v49h50.9v-49h34.5V739.7z"/>
		<path class="st13" d="M391.8,739.7H295V605.9h96.8v25.9h-62.4v23.1h57.9v25.9h-57.9v33.1h62.4V739.7z"/>
		<path class="st13" d="M544.4,739.7h-35.6l-9.3-27h-49.5l-9.3,27h-34.8l49.4-133.8h39.7L544.4,739.7z M491.1,688.1l-16.5-47.9
			l-16.5,47.9H491.1z"/>
		<path class="st13" d="M674,648.1c0,6-1,11.8-3.1,17.6c-2.1,5.7-5.1,10.5-9,14.4c-5.3,5.3-11.3,9.3-17.8,11.9s-14.7,4-24.5,4h-21.5
			v43.6h-34.5V605.9h56.8c8.5,0,15.7,0.7,21.5,2.2c5.8,1.5,11,3.7,15.5,6.6c5.4,3.5,9.5,8.1,12.4,13.6
			C672.6,633.8,674,640.4,674,648.1z M638.3,648.9c0-3.8-1-7-3.1-9.7c-2-2.7-4.4-4.6-7.1-5.7c-3.6-1.4-7.1-2.2-10.5-2.4
			c-3.4-0.1-8-0.2-13.7-0.2h-5.9v40h9.9c5.9,0,10.7-0.4,14.5-1.1c3.8-0.7,7-2.2,9.6-4.3c2.2-1.9,3.8-4.2,4.8-6.9
			S638.3,652.7,638.3,648.9z"/>
		<path class="st13" d="M805.5,697.6c0,13.2-5.6,23.9-16.8,32.1c-11.2,8.2-26.3,12.4-45.5,12.4c-11.1,0-20.7-1-29-2.9
			c-8.2-1.9-15.9-4.4-23.1-7.4v-32.1h3.8c7.1,5.7,15.1,10.1,23.9,13.1c8.8,3.1,17.3,4.6,25.5,4.6c2.1,0,4.9-0.2,8.3-0.5
			s6.2-1,8.4-1.8c2.6-1.1,4.8-2.4,6.5-4s2.6-4,2.6-7.2c0-2.9-1.2-5.5-3.7-7.6c-2.5-2.1-6.1-3.8-10.9-4.9c-5-1.2-10.3-2.3-15.9-3.4
			c-5.6-1-10.9-2.4-15.8-4c-11.3-3.7-19.4-8.6-24.3-14.9c-4.9-6.3-7.4-14-7.4-23.3c0-12.5,5.6-22.6,16.8-30.5
			c11.2-7.9,25.5-11.8,43.1-11.8c8.8,0,17.5,0.9,26.1,2.6c8.6,1.7,16,3.8,22.3,6.4v30.8h-3.7c-5.4-4.3-12-7.9-19.8-10.8
			c-7.8-2.9-15.8-4.4-23.9-4.4c-2.9,0-5.7,0.2-8.6,0.6c-2.8,0.4-5.6,1.1-8.2,2.2c-2.3,0.9-4.3,2.3-6,4.1c-1.7,1.8-2.5,3.9-2.5,6.2
			c0,3.5,1.3,6.2,4,8.1s7.8,3.6,15.3,5.2c4.9,1,9.6,2,14.2,3c4.5,1,9.4,2.3,14.6,4c10.2,3.4,17.8,7.9,22.7,13.7
			C803.1,680.9,805.5,688.4,805.5,697.6z"/>
		<path class="st13" d="M949.1,739.7h-34.5v-58.9h-50.9v58.9h-34.5V605.9h34.5v49h50.9v-49h34.5V739.7z"/>
		<path class="st13" d="M1106.9,739.7h-35.6l-9.3-27h-49.5l-9.3,27h-34.8l49.4-133.8h39.7L1106.9,739.7z M1053.6,688.1l-16.5-47.9
			l-16.5,47.9H1053.6z"/>
		<path class="st13" d="M1254.9,739.7h-42.1l-36.4-49.1h-16v49.1h-34.3V605.9h57.9c7.9,0,14.7,0.4,20.4,1.3c5.7,0.9,11,2.8,16,5.8
			c5,3,9,6.9,12,11.6s4.4,10.7,4.4,17.9c0,9.9-2.3,17.9-6.9,24.2c-4.6,6.2-11.1,11.4-19.6,15.5L1254.9,739.7z M1201.1,646.9
			c0-3.4-0.7-6.2-2.1-8.6c-1.4-2.4-3.7-4.3-7.1-5.7c-2.3-1-5.1-1.5-8.2-1.8c-3.1-0.2-6.7-0.3-10.9-0.3h-12.5v36h10.6
			c5.5,0,10.1-0.3,13.8-0.8c3.7-0.5,6.8-1.8,9.3-3.7c2.4-1.9,4.1-3.9,5.3-6.2C1200.6,653.7,1201.1,650.6,1201.1,646.9z"/>
		<path class="st13" d="M1394.9,739.7h-42.4l-40-53.5l-8,9.9v43.7H1270V605.9h34.5v60.6l47.8-60.6h40l-52.3,61.9L1394.9,739.7z"/>
	</g>
	<path class="st14" d="M2142.7,859.6c-45.9-59-64.6-97.3-64.6-97.3c-11.1-74.8,13.1-111.3,13.1-111.3c16-10.8,36.2-1.9,36.2-1.9
		c0.1-13.5-22.7-57.6-22.7-57.6c16.2-135.4-48.1-227.1-48.1-227.1c-39.3-63.3-108.1-116.4-195.6-145.1c-87.6-28.7-86-56.8-86-56.8
		c30.8-134,111-154.6,112.6-155c-225.3-47.5-343.8,142.3-383.2,173.3c-23.1,18.1-209.6,103.5-244,96.3c-0.5-0.1-0.8-0.2-0.8-0.2
		c-32.3-8.7-60.1,23.7-60.1,23.7l-10.4,12.8c-150.1,47.6-161,97-161,97s7.1,71.8,179.1,138.6c0,0,4.3-3,12.3-7.2l0.6-0.3l6.5,8.7
		c0,0,3.8-10,11.7-17.1l6.7-3c2.9-1.1,6-2.3,9.2-3.4l0.3-0.1l8.4,18.6c0,0,1.9-15,12.3-24.4l7.5-2.1c0.6-0.2,1.1-0.3,1.7-0.4
		c4.6-1,9.4-1.9,14.4-2.6l5.4,28.8c0.1-0.5,6.7-24.2,21.2-31.2c0.4-0.1,0.8-0.1,1.1-0.1c3.5-0.1,7.1-0.2,10.8-0.1v0l1,7.4l3.6,26.1
		c0,0,13.4-33.1,23.1-31.6c4.1,0.5,8.2,1.2,12.4,1.9l1.2,35.5c0.2-0.7,7.6-23.1,21.2-30.3c2.8,0.8,5.7,1.7,8.5,2.6l-5.6,40.1
		c0,0,19.8-35,33.4-29.3c0.1,0,0.2,0.1,0.3,0.1c0.1,0,0.3,0.1,0.4,0.2c1.8,0.8,3.6,1.6,5.4,2.5l-11.2,44.1
		c0.5-0.7,20.6-29.8,37.8-29.4c2.1,1.3,4.2,2.6,6.3,4c1.2,0.8,2.3,1.5,3.5,2.3l-17.8,37.3c0,0,22-17.6,38-22.6
		c0.1,0.1,0.2,0.2,0.4,0.3c0,0,24.8,23.1-25,59.9c0,0,0,0,0,0c1.1,0.8,47.2,35.6,159.6-33.8c1.7,2,2.8,3.3,3.3,3.9
		c0.1,0.1,0.1,0.1,0.1,0.2c0.1,0.1,0.1,0.1,0.1,0.1c68,82.5,175.6,134.4,175.6,134.4c-67.4-173-42.7-177.8-42.7-177.8
		c144.4-110.5,211,36.1,211,36.1l-5,41.2l10.9,0.3c37.8,61.4-59.5,91.6-59.5,91.6l-198,43.8c-129.2,52.3-145,130.4-145,130.4
		l87.3-8.8l18.2-28.8c106.5-33.9,258.2-29.1,258.2-29.1c44.1-29.1,40-21.4,40-21.4c-0.6,7.5-16,23.3-16,23.3
		c33.8,6.3,76.7,45.1,94.4,59.8c15.3,12.8,69.3,98.1,69.3,98.1C2165.6,925.4,2142.7,859.6,2142.7,859.6z M1162.3,337.7l26.6-24.1
		C1188.5,314.2,1181.1,324.1,1162.3,337.7z"/>
	<circle class="st13" cx="266" cy="498.9" r="29.7"/>
	<circle class="st13" cx="189.5" cy="373.8" r="46.8"/>
	<circle class="st13" cx="324.7" cy="267.9" r="70.1"/>
</g>
<g id="Layer_4" class="st0">
	<path class="st15" d="M-3117.3,1144.6"/>
	<path class="st15" d="M-3015.5,1153.8"/>
	<path class="st15" d="M-3256.6,1339.4"/>
	<path class="st16" d="M-3117.3,1144.6"/>
	<path class="st16" d="M-3015.5,1153.8"/>
	<path class="st15" d="M-3292.6,1272.2"/>
	<path class="st15" d="M-3292.6,1140.3c-2.6-1.5-5.4-2.1-8.3-2.2"/>
	<path class="st15" d="M-3334.4,1153.8C-3334.5,1153.8-3334.5,1153.8-3334.4,1153.8"/>
	<path class="st15" d="M-3304.1,1205.8C-3304.1,1205.8-3304.1,1205.8-3304.1,1205.8"/>
	<path class="st17" d="M-3312.6,1273c10.7,0,19.3,8.7,19.3,19.4c0,10.7-8.7,19.4-19.3,19.4c-10.7,0-19.4-8.8-19.4-19.4
		C-3332,1281.6-3323.4,1273-3312.6,1273z"/>
	<path class="st17" d="M-2867.2,1590.8l-120.2-184.9C-2987.4,1405.9-2851.9,1471.1-2867.2,1590.8z"/>
	<path class="st17" d="M-2832.4,1554.4l-70.1-125.4C-2901.4,1429.7-2825,1483.1-2832.4,1554.4z"/>
	<path class="st17" d="M-2811.7,1504.9l-40.5-61.1C-2852.1,1443.8-2813.3,1463.6-2811.7,1504.9z"/>
	<path class="st17" d="M-3990.7,1580.5l-10.7,31h21.3L-3990.7,1580.5z M-3886.9,1579.8c-1.3-1.8-2.8-3-4.6-3.7
		c-2.3-0.9-4.6-1.4-6.8-1.5c-2.2-0.1-5.2-0.2-8.8-0.2h-3.8v25.9h6.4c3.8,0,6.9-0.2,9.4-0.7c2.5-0.5,4.5-1.4,6.2-2.8
		c1.4-1.2,2.5-2.7,3.1-4.4s1-3.8,1-6.3C-3884.9,1583.7-3885.5,1581.6-3886.9,1579.8z M-3886.9,1579.8c-1.3-1.8-2.8-3-4.6-3.7
		c-2.3-0.9-4.6-1.4-6.8-1.5c-2.2-0.1-5.2-0.2-8.8-0.2h-3.8v25.9h6.4c3.8,0,6.9-0.2,9.4-0.7c2.5-0.5,4.5-1.4,6.2-2.8
		c1.4-1.2,2.5-2.7,3.1-4.4s1-3.8,1-6.3C-3884.9,1583.7-3885.5,1581.6-3886.9,1579.8z M-3990.7,1580.5l-10.7,31h21.3L-3990.7,1580.5z
		 M-3990.7,1580.5l-10.7,31h21.3L-3990.7,1580.5z M-3886.9,1579.8c-1.3-1.8-2.8-3-4.6-3.7c-2.3-0.9-4.6-1.4-6.8-1.5
		c-2.2-0.1-5.2-0.2-8.8-0.2h-3.8v25.9h6.4c3.8,0,6.9-0.2,9.4-0.7c2.5-0.5,4.5-1.4,6.2-2.8c1.4-1.2,2.5-2.7,3.1-4.4s1-3.8,1-6.3
		C-3884.9,1583.7-3885.5,1581.6-3886.9,1579.8z M-3886.9,1579.8c-1.3-1.8-2.8-3-4.6-3.7c-2.3-0.9-4.6-1.4-6.8-1.5
		c-2.2-0.1-5.2-0.2-8.8-0.2h-3.8v25.9h6.4c3.8,0,6.9-0.2,9.4-0.7c2.5-0.5,4.5-1.4,6.2-2.8c1.4-1.2,2.5-2.7,3.1-4.4s1-3.8,1-6.3
		C-3884.9,1583.7-3885.5,1581.6-3886.9,1579.8z M-3990.7,1580.5l-10.7,31h21.3L-3990.7,1580.5z M-3990.7,1580.5l-10.7,31h21.3
		L-3990.7,1580.5z M-3886.9,1579.8c-1.3-1.8-2.8-3-4.6-3.7c-2.3-0.9-4.6-1.4-6.8-1.5c-2.2-0.1-5.2-0.2-8.8-0.2h-3.8v25.9h6.4
		c3.8,0,6.9-0.2,9.4-0.7c2.5-0.5,4.5-1.4,6.2-2.8c1.4-1.2,2.5-2.7,3.1-4.4s1-3.8,1-6.3C-3884.9,1583.7-3885.5,1581.6-3886.9,1579.8z
		 M-3626.9,1580.5l-10.7,31h21.3L-3626.9,1580.5z M-3522.2,1579.2c-0.9-1.6-2.4-2.8-4.6-3.7c-1.5-0.6-3.3-1-5.3-1.1
		c-2-0.1-4.4-0.2-7-0.2h-8.1v23.3h6.9c3.6,0,6.6-0.2,8.9-0.5c2.4-0.4,4.4-1.2,6-2.4c1.6-1.2,2.7-2.5,3.4-4c0.7-1.4,1.1-3.4,1.1-5.8
		C-3520.9,1582.6-3521.4,1580.8-3522.2,1579.2z M-3626.9,1580.5l-10.7,31h21.3L-3626.9,1580.5z M-3522.2,1579.2
		c-0.9-1.6-2.4-2.8-4.6-3.7c-1.5-0.6-3.3-1-5.3-1.1c-2-0.1-4.4-0.2-7-0.2h-8.1v23.3h6.9c3.6,0,6.6-0.2,8.9-0.5
		c2.4-0.4,4.4-1.2,6-2.4c1.6-1.2,2.7-2.5,3.4-4c0.7-1.4,1.1-3.4,1.1-5.8C-3520.9,1582.6-3521.4,1580.8-3522.2,1579.2z
		 M-3886.9,1579.8c-1.3-1.8-2.8-3-4.6-3.7c-2.3-0.9-4.6-1.4-6.8-1.5c-2.2-0.1-5.2-0.2-8.8-0.2h-3.8v25.9h6.4c3.8,0,6.9-0.2,9.4-0.7
		c2.5-0.5,4.5-1.4,6.2-2.8c1.4-1.2,2.5-2.7,3.1-4.4s1-3.8,1-6.3C-3884.9,1583.7-3885.5,1581.6-3886.9,1579.8z M-3990.7,1580.5
		l-10.7,31h21.3L-3990.7,1580.5z M-4390.5,1157.8v610.1h1291.8c-1.4-6.5-2.7-13-3.8-19.5c0,0,0,0,0-0.1c0-0.1,0-0.2,0-0.3
		c-0.2-0.8-0.5-2.7-1-5.6c-146.1,4.4-171.1-54.5-171.7-55.9c0,0,0,0,0.1,0c68.2-7.7,57.1-43.6,57.1-43.6c-0.1-0.2-0.1-0.3-0.2-0.5
		c-18.1-4.1-48.9,0.6-48.9,0.6l37.7-25.9c-0.7-1.4-1.4-2.7-2.1-4.1c-1.3-2.5-2.5-4.9-3.8-7.3c-16.3-9.9-51.7,6.9-52.5,7.3l35.1-36.1
		c-1.2-1.8-2.5-3.6-3.8-5.4c-0.1-0.1-0.2-0.3-0.3-0.4c-0.1-0.1-0.1-0.2-0.2-0.3c-9.9-13-48.2,9.7-48.2,9.7l27.6-35.3
		c-2.2-2.5-4.5-4.8-6.7-7.2c-17-0.5-36.5,16.9-37.1,17.4l18.5-34.7c-3.6-3.1-7.2-6-10.8-8.7c-8.5-6.8-39.6,17.5-39.6,17.5l11-27.1
		l3.1-7.7l0,0c-3.5-2.1-6.9-4-10.4-5.8c-0.4-0.2-0.7-0.4-1.1-0.5c-17.8-1.3-37.2,17.9-37.6,18.2l10.7-30.6c-5.1-2-10.2-3.8-15.2-5.5
		c-0.6-0.2-1.2-0.4-1.9-0.6l-8.3-2.1c-15.1,3.2-25.2,16.6-25.2,16.6l2.3-22.4l-0.3-0.1c-3.7-0.7-7.3-1.3-10.7-1.9l-8.1-0.8
		c-11.5,2.4-20.7,9.9-20.7,9.9l-1.4-12l-0.8-0.1c-10-0.3-15.8,0.1-15.8,0.1c-127.9-159.1-95-231.9-95-231.9s37.8-41.3,208-3.9
		l17-6.5c0,0,44.5-15.7,70.7,10.5c0,0,0.2,0.2,0.6,0.6c14.2,12.7,75.4,24.2,138.1,32.2c65.5,8.3,132.6,12.7,149.1,10.4
		c55-7.9,273.6-124.3,463.3,45.8c-1.8-0.5-90-25.1-193.6,86.4c0,0-17,26.1,51.1,102.1c68.1,75.9,104.6,164.9,107.3,247.3
		c0,0,0.6,6.4,0.4,17.8h90.1v-610.1H-4390.5z M-3476.3,1558.3h22.3v39.2l30.9-39.2h25.9l-33.8,40l35.5,46.5h-27.4l-25.9-34.6
		l-5.2,6.4v28.2h-22.3V1558.3z M-4222.9,1584.8h-2.6c-1.1-0.9-2.5-2-4.1-3.3c-1.6-1.3-3.5-2.5-5.6-3.8c-2.1-1.2-4.4-2.3-6.9-3.1
		c-2.5-0.8-5.1-1.3-8-1.3c-3.1,0-6.1,0.5-8.9,1.5c-2.8,1-5.4,2.6-7.8,4.9c-2.3,2.2-4.1,5.1-5.5,8.8c-1.4,3.6-2.1,8-2.1,13.2
		c0,5.4,0.8,9.9,2.3,13.6c1.5,3.6,3.5,6.5,5.8,8.6c2.4,2.1,5,3.6,7.9,4.6c2.9,0.9,5.8,1.4,8.6,1.4c2.7,0,5.4-0.4,8-1.2
		c2.7-0.8,5.1-1.9,7.4-3.3c1.9-1.1,3.7-2.3,5.3-3.6c1.6-1.3,3-2.4,4-3.3h2.3v20.7c-2.2,1-4.2,1.9-6.2,2.7c-2,0.9-4,1.6-6.2,2.2
		c-2.8,0.8-5.5,1.4-8,1.9c-2.5,0.4-5.9,0.6-10.2,0.6c-6.4,0-12.4-1-17.8-2.8c-5.4-1.9-10.1-4.7-14-8.5c-3.9-3.8-6.9-8.4-9.1-14.1
		c-2.1-5.6-3.2-12.1-3.2-19.5c0-6.9,1-13.1,3.1-18.7c2.1-5.6,5-10.4,8.9-14.4c3.8-3.8,8.4-6.8,14-8.9c5.6-2.1,11.6-3.1,18.2-3.1
		c3.6,0,6.9,0.2,9.8,0.6c2.9,0.4,5.6,0.9,8.1,1.6c2.6,0.7,4.9,1.6,7.1,2.5c2.1,0.9,4,1.8,5.5,2.5V1584.8z M-4129,1644.8h-22.3v-38.1
		h-32.9v38.1h-22.3v-86.5h22.3v31.7h32.9v-31.7h22.3V1644.8z M-4044.3,1575h-40.4v14.9h37.5v16.7h-37.5v21.4h40.4v16.7h-62.6v-86.5
		h62.6V1575z M-3968.7,1644.8l-6-17.5h-32l-6,17.5h-22.5l32-86.5h25.7l32,86.5H-3968.7z M-3863.8,1597c-1.4,3.7-3.3,6.8-5.8,9.3
		c-3.4,3.4-7.3,6-11.5,7.7c-4.2,1.7-9.5,2.6-15.8,2.6h-13.9v28.2h-22.3v-86.5h36.7c5.5,0,10.1,0.5,13.9,1.4s7.1,2.4,10,4.3
		c3.5,2.3,6.1,5.2,8,8.8c1.8,3.6,2.8,7.8,2.8,12.8C-3861.8,1589.5-3862.5,1593.3-3863.8,1597z M-3787.6,1638.4c-7.2,5.3-17,8-29.4,8
		c-7.2,0-13.4-0.6-18.7-1.9c-5.3-1.3-10.3-2.9-15-4.8V1619h2.4c4.6,3.7,9.8,6.5,15.5,8.5c5.7,2,11.2,3,16.5,3c1.4,0,3.1-0.1,5.3-0.3
		c2.2-0.2,4-0.6,5.4-1.2c1.7-0.7,3.1-1.6,4.2-2.6c1.1-1,1.7-2.6,1.7-4.7c0-1.9-0.8-3.5-2.4-4.9c-1.6-1.4-4-2.4-7.1-3.2
		c-3.3-0.8-6.7-1.5-10.3-2.2c-3.6-0.7-7-1.5-10.2-2.6c-7.3-2.4-12.5-5.6-15.7-9.6c-3.2-4.1-4.8-9.1-4.8-15.1
		c0-8.1,3.6-14.6,10.8-19.7c7.2-5.1,16.5-7.6,27.9-7.6c5.7,0,11.3,0.6,16.9,1.7c5.6,1.1,10.4,2.5,14.4,4.2v19.9h-2.4
		c-3.5-2.8-7.8-5.1-12.8-7c-5.1-1.9-10.2-2.8-15.5-2.8c-1.9,0-3.7,0.1-5.6,0.4c-1.8,0.3-3.6,0.7-5.3,1.4c-1.5,0.6-2.8,1.5-3.9,2.7
		c-1.1,1.2-1.6,2.5-1.6,4c0,2.3,0.9,4,2.6,5.3s5,2.3,9.9,3.3c3.2,0.7,6.2,1.3,9.1,1.9c2.9,0.6,6.1,1.5,9.4,2.6
		c6.6,2.2,11.5,5.1,14.7,8.9c3.2,3.7,4.7,8.6,4.7,14.5C-3776.7,1626.2-3780.4,1633.1-3787.6,1638.4z M-3683.9,1644.8h-22.3v-38.1
		h-33v38.1h-22.3v-86.5h22.3v31.7h33v-31.7h22.3V1644.8z M-3569.4,1558.3h37.4c5.1,0,9.5,0.3,13.2,0.9c3.7,0.6,7.1,1.8,10.3,3.8
		c3.3,1.9,5.8,4.4,7.8,7.5c1.9,3.1,2.9,6.9,2.9,11.6c0,6.4-1.5,11.6-4.4,15.6c-3,4-7.2,7.4-12.7,10.1l28.9,37.1h-27.3l-23.5-31.7
		h-10.3v31.7h-22.2V1558.3z M-3581.9,1644.8h-23l-6-17.5h-32l-6,17.5h-22.5l31.9-86.5h25.7L-3581.9,1644.8z M-3531.4,1597
		c2.4-0.4,4.4-1.2,6-2.4c1.6-1.2,2.7-2.5,3.4-4c0.7-1.4,1.1-3.4,1.1-5.8c0-2.2-0.4-4-1.3-5.6c-0.9-1.6-2.4-2.8-4.6-3.7
		c-1.5-0.6-3.3-1-5.3-1.1c-2-0.1-4.4-0.2-7-0.2h-8.1v23.3h6.9C-3536.8,1597.5-3533.8,1597.3-3531.4,1597z M-3637.6,1611.5h21.3
		l-10.6-31L-3637.6,1611.5z M-3891.4,1576.1c-2.3-0.9-4.6-1.4-6.8-1.5c-2.2-0.1-5.2-0.2-8.8-0.2h-3.8v25.9h6.4
		c3.8,0,6.9-0.2,9.4-0.7c2.5-0.5,4.5-1.4,6.2-2.8c1.4-1.2,2.5-2.7,3.1-4.4s1-3.8,1-6.3c0-2.4-0.7-4.5-2-6.3
		C-3888.2,1578.1-3889.7,1576.8-3891.4,1576.1z M-4001.4,1611.5h21.3l-10.6-31L-4001.4,1611.5z M-3990.7,1580.5l-10.7,31h21.3
		L-3990.7,1580.5z M-3886.9,1579.8c-1.3-1.8-2.8-3-4.6-3.7c-2.3-0.9-4.6-1.4-6.8-1.5c-2.2-0.1-5.2-0.2-8.8-0.2h-3.8v25.9h6.4
		c3.8,0,6.9-0.2,9.4-0.7c2.5-0.5,4.5-1.4,6.2-2.8c1.4-1.2,2.5-2.7,3.1-4.4s1-3.8,1-6.3C-3884.9,1583.7-3885.5,1581.6-3886.9,1579.8z
		 M-3626.9,1580.5l-10.7,31h21.3L-3626.9,1580.5z M-3626.9,1580.5l-10.7,31h21.3L-3626.9,1580.5z M-3886.9,1579.8
		c-1.3-1.8-2.8-3-4.6-3.7c-2.3-0.9-4.6-1.4-6.8-1.5c-2.2-0.1-5.2-0.2-8.8-0.2h-3.8v25.9h6.4c3.8,0,6.9-0.2,9.4-0.7
		c2.5-0.5,4.5-1.4,6.2-2.8c1.4-1.2,2.5-2.7,3.1-4.4s1-3.8,1-6.3C-3884.9,1583.7-3885.5,1581.6-3886.9,1579.8z M-3990.7,1580.5
		l-10.7,31h21.3L-3990.7,1580.5z M-3990.7,1580.5l-10.7,31h21.3L-3990.7,1580.5z M-3886.9,1579.8c-1.3-1.8-2.8-3-4.6-3.7
		c-2.3-0.9-4.6-1.4-6.8-1.5c-2.2-0.1-5.2-0.2-8.8-0.2h-3.8v25.9h6.4c3.8,0,6.9-0.2,9.4-0.7c2.5-0.5,4.5-1.4,6.2-2.8
		c1.4-1.2,2.5-2.7,3.1-4.4s1-3.8,1-6.3C-3884.9,1583.7-3885.5,1581.6-3886.9,1579.8z M-3886.9,1579.8c-1.3-1.8-2.8-3-4.6-3.7
		c-2.3-0.9-4.6-1.4-6.8-1.5c-2.2-0.1-5.2-0.2-8.8-0.2h-3.8v25.9h6.4c3.8,0,6.9-0.2,9.4-0.7c2.5-0.5,4.5-1.4,6.2-2.8
		c1.4-1.2,2.5-2.7,3.1-4.4s1-3.8,1-6.3C-3884.9,1583.7-3885.5,1581.6-3886.9,1579.8z M-3990.7,1580.5l-10.7,31h21.3L-3990.7,1580.5z
		 M-3990.7,1580.5l-10.7,31h21.3L-3990.7,1580.5z M-3990.7,1580.5l-10.7,31h21.3L-3990.7,1580.5z"/>
	<path class="st15" d="M-4172.9-365.6"/>
	<path class="st15" d="M-4071.1-356.3"/>
	<path class="st15" d="M-4312.2-170.7"/>
	<path class="st16" d="M-4172.9-365.6"/>
	<path class="st16" d="M-4071.1-356.3"/>
	<path class="st15" d="M-4348.2-237.9"/>
	<path class="st15" d="M-4390-356.4C-4390.1-356.3-4390.1-356.3-4390-356.4"/>
	<path class="st15" d="M-4359.7-304.3C-4359.7-304.3-4359.7-304.3-4359.7-304.3"/>
	<g class="st18">
		<path class="st19" d="M-4324.4-1084.7c10.7,0,19.3,8.7,19.3,19.4c0,10.7-8.7,19.4-19.3,19.4c-10.7,0-19.4-8.8-19.4-19.4
			C-4343.8-1076-4335.2-1084.7-4324.4-1084.7z"/>
		<path class="st19" d="M-5002.5-777.2l-10.7,31h21.3L-5002.5-777.2z M-4898.6-777.8c-1.3-1.8-2.9-3-4.6-3.7
			c-2.3-0.9-4.6-1.4-6.8-1.5c-2.2-0.1-5.1-0.2-8.8-0.2h-3.8v25.9h6.4c3.8,0,6.9-0.2,9.4-0.7c2.5-0.5,4.5-1.4,6.2-2.8
			c1.4-1.2,2.5-2.7,3.1-4.4c0.6-1.7,1-3.8,1-6.3C-4896.7-774-4897.3-776.1-4898.6-777.8z M-4898.6-777.8c-1.3-1.8-2.9-3-4.6-3.7
			c-2.3-0.9-4.6-1.4-6.8-1.5c-2.2-0.1-5.1-0.2-8.8-0.2h-3.8v25.9h6.4c3.8,0,6.9-0.2,9.4-0.7c2.5-0.5,4.5-1.4,6.2-2.8
			c1.4-1.2,2.5-2.7,3.1-4.4c0.6-1.7,1-3.8,1-6.3C-4896.7-774-4897.3-776.1-4898.6-777.8z M-5002.5-777.2l-10.7,31h21.3
			L-5002.5-777.2z M-5002.5-777.2l-10.7,31h21.3L-5002.5-777.2z M-4898.6-777.8c-1.3-1.8-2.9-3-4.6-3.7c-2.3-0.9-4.6-1.4-6.8-1.5
			c-2.2-0.1-5.1-0.2-8.8-0.2h-3.8v25.9h6.4c3.8,0,6.9-0.2,9.4-0.7c2.5-0.5,4.5-1.4,6.2-2.8c1.4-1.2,2.5-2.7,3.1-4.4
			c0.6-1.7,1-3.8,1-6.3C-4896.7-774-4897.3-776.1-4898.6-777.8z M-4898.6-777.8c-1.3-1.8-2.9-3-4.6-3.7c-2.3-0.9-4.6-1.4-6.8-1.5
			c-2.2-0.1-5.1-0.2-8.8-0.2h-3.8v25.9h6.4c3.8,0,6.9-0.2,9.4-0.7c2.5-0.5,4.5-1.4,6.2-2.8c1.4-1.2,2.5-2.7,3.1-4.4
			c0.6-1.7,1-3.8,1-6.3C-4896.7-774-4897.3-776.1-4898.6-777.8z M-5002.5-777.2l-10.7,31h21.3L-5002.5-777.2z M-5002.5-777.2
			l-10.7,31h21.3L-5002.5-777.2z M-4898.6-777.8c-1.3-1.8-2.9-3-4.6-3.7c-2.3-0.9-4.6-1.4-6.8-1.5c-2.2-0.1-5.1-0.2-8.8-0.2h-3.8
			v25.9h6.4c3.8,0,6.9-0.2,9.4-0.7c2.5-0.5,4.5-1.4,6.2-2.8c1.4-1.2,2.5-2.7,3.1-4.4c0.6-1.7,1-3.8,1-6.3
			C-4896.7-774-4897.3-776.1-4898.6-777.8z M-4638.7-777.2l-10.6,31h21.3L-4638.7-777.2z M-4534-778.4c-0.9-1.6-2.4-2.8-4.6-3.7
			c-1.5-0.6-3.3-1-5.3-1.1c-2-0.1-4.4-0.2-7-0.2h-8.1v23.3h6.9c3.6,0,6.5-0.2,8.9-0.5c2.4-0.4,4.4-1.2,6-2.4c1.6-1.2,2.7-2.5,3.4-4
			c0.7-1.4,1.1-3.4,1.1-5.8C-4532.7-775-4533.1-776.9-4534-778.4z M-4638.7-777.2l-10.6,31h21.3L-4638.7-777.2z M-4534-778.4
			c-0.9-1.6-2.4-2.8-4.6-3.7c-1.5-0.6-3.3-1-5.3-1.1c-2-0.1-4.4-0.2-7-0.2h-8.1v23.3h6.9c3.6,0,6.5-0.2,8.9-0.5
			c2.4-0.4,4.4-1.2,6-2.4c1.6-1.2,2.7-2.5,3.4-4c0.7-1.4,1.1-3.4,1.1-5.8C-4532.7-775-4533.1-776.9-4534-778.4z M-4898.6-777.8
			c-1.3-1.8-2.9-3-4.6-3.7c-2.3-0.9-4.6-1.4-6.8-1.5c-2.2-0.1-5.1-0.2-8.8-0.2h-3.8v25.9h6.4c3.8,0,6.9-0.2,9.4-0.7
			c2.5-0.5,4.5-1.4,6.2-2.8c1.4-1.2,2.5-2.7,3.1-4.4c0.6-1.7,1-3.8,1-6.3C-4896.7-774-4897.3-776.1-4898.6-777.8z M-5002.5-777.2
			l-10.7,31h21.3L-5002.5-777.2z M-5402.2-1199.8v610.1h1291.8c-1.4-6.5-2.7-13-3.8-19.5c0,0,0,0,0-0.1c0-0.1,0-0.2,0-0.3
			c-0.2-0.8-0.5-2.7-1-5.6c-146.1,4.4-171.1-54.5-171.7-55.9c0,0,0,0,0.1,0c68.2-7.7,57.1-43.6,57.1-43.6c-0.1-0.2-0.1-0.3-0.2-0.5
			c-18.1-4.1-48.9,0.6-48.9,0.6l37.7-25.9c-0.7-1.4-1.4-2.7-2-4.1c-1.3-2.5-2.5-4.9-3.8-7.3c-16.3-9.9-51.7,6.9-52.5,7.3l35.1-36.1
			c-1.2-1.8-2.5-3.6-3.8-5.4c-0.1-0.1-0.2-0.3-0.3-0.4c-0.1-0.1-0.1-0.2-0.2-0.3c-9.9-13-48.2,9.7-48.2,9.7l27.6-35.3
			c-2.2-2.5-4.5-4.8-6.7-7.2c-17-0.5-36.5,16.9-37.1,17.4l18.5-34.7c-3.6-3.1-7.2-6-10.8-8.7c-8.5-6.8-39.6,17.5-39.6,17.5l11-27.1
			l3.1-7.7l0,0c-3.5-2.1-6.9-4-10.4-5.8c-0.4-0.2-0.7-0.4-1.1-0.5c-17.8-1.3-37.2,17.9-37.6,18.2l10.7-30.6
			c-5.1-2-10.2-3.8-15.2-5.5c-0.6-0.2-1.2-0.4-1.9-0.6l-8.3-2.1c-15.1,3.2-25.2,16.6-25.2,16.6l2.3-22.4l-0.3-0.1
			c-3.7-0.7-7.3-1.3-10.7-1.9l-8.1-0.8c-11.5,2.4-20.7,9.9-20.7,9.9l-1.4-12l-0.8-0.1c-10-0.3-15.8,0.1-15.8,0.1
			c-127.9-159.1-95-231.9-95-231.9s37.8-41.3,208-3.9l17-6.5c0,0,44.5-15.7,70.7,10.5c0,0,0.2,0.2,0.6,0.6
			c14.2,12.7,75.4,24.2,138.1,32.2c65.5,8.3,132.6,12.7,149.1,10.4c55-7.9,273.6-124.3,463.3,45.8c-1.8-0.5-90-25.1-193.6,86.4
			c0,0-17,26.1,51.1,102.1c68.1,75.9,104.6,164.9,107.3,247.3c0,0,0.6,6.4,0.4,17.8h90.1v-610.1H-5402.2z M-4488.1-799.4h22.3v39.2
			l30.9-39.2h25.9l-33.8,40l35.5,46.5h-27.4l-25.9-34.6l-5.2,6.4v28.2h-22.3V-799.4z M-5234.7-772.9h-2.6c-1.1-0.9-2.5-2-4.1-3.3
			c-1.6-1.3-3.5-2.5-5.6-3.8c-2.1-1.2-4.4-2.3-6.9-3.1c-2.5-0.8-5.1-1.3-8-1.3c-3.1,0-6.1,0.5-8.9,1.5c-2.8,1-5.4,2.6-7.8,4.9
			c-2.3,2.2-4.1,5.1-5.5,8.8c-1.4,3.6-2.1,8-2.1,13.2c0,5.4,0.8,9.9,2.3,13.6c1.5,3.6,3.5,6.5,5.8,8.6c2.4,2.1,5,3.6,7.9,4.6
			c2.9,0.9,5.8,1.4,8.6,1.4c2.7,0,5.4-0.4,8-1.2c2.7-0.8,5.1-1.9,7.4-3.3c1.9-1.1,3.7-2.3,5.3-3.6c1.6-1.3,3-2.4,4-3.3h2.3v20.7
			c-2.2,1-4.2,1.9-6.2,2.7c-2,0.9-4,1.6-6.2,2.2c-2.8,0.8-5.5,1.4-8,1.9c-2.5,0.4-5.9,0.6-10.2,0.6c-6.4,0-12.4-1-17.8-2.8
			c-5.4-1.9-10.1-4.7-14-8.5c-3.9-3.8-6.9-8.4-9.1-14.1c-2.1-5.6-3.2-12.1-3.2-19.5c0-6.9,1-13.1,3.1-18.7c2.1-5.6,5-10.4,8.9-14.4
			c3.8-3.8,8.4-6.8,14-8.9c5.6-2.1,11.6-3.1,18.2-3.1c3.6,0,6.9,0.2,9.8,0.6c2.9,0.4,5.6,0.9,8.1,1.6c2.6,0.7,4.9,1.6,7.1,2.5
			c2.1,0.9,4,1.8,5.5,2.5V-772.9z M-5140.8-712.8h-22.3V-751h-32.9v38.1h-22.3v-86.5h22.3v31.7h32.9v-31.7h22.3V-712.8z
			 M-5056.1-782.6h-40.4v14.9h37.5v16.7h-37.5v21.4h40.4v16.7h-62.6v-86.5h62.6V-782.6z M-4980.5-712.8l-6-17.5h-32l-6,17.5h-22.5
			l32-86.5h25.7l32,86.5H-4980.5z M-4875.6-760.7c-1.4,3.7-3.3,6.8-5.8,9.3c-3.4,3.4-7.3,6-11.5,7.7c-4.2,1.7-9.5,2.6-15.8,2.6
			h-13.9v28.2h-22.3v-86.5h36.7c5.5,0,10.1,0.5,13.9,1.4c3.8,0.9,7.1,2.4,10,4.3c3.5,2.3,6.1,5.2,8,8.8c1.8,3.6,2.8,7.8,2.8,12.8
			C-4873.6-768.2-4874.3-764.4-4875.6-760.7z M-4799.4-719.3c-7.2,5.3-17,8-29.4,8c-7.2,0-13.4-0.6-18.7-1.9
			c-5.3-1.3-10.3-2.9-15-4.8v-20.7h2.4c4.6,3.7,9.8,6.5,15.5,8.5c5.7,2,11.2,3,16.5,3c1.4,0,3.1-0.1,5.3-0.3c2.2-0.2,4-0.6,5.4-1.2
			c1.7-0.7,3.1-1.6,4.2-2.6c1.1-1,1.7-2.6,1.7-4.7c0-1.9-0.8-3.5-2.4-4.9c-1.6-1.4-4-2.4-7.1-3.2c-3.3-0.8-6.7-1.5-10.3-2.2
			c-3.6-0.7-7-1.5-10.2-2.6c-7.3-2.4-12.5-5.6-15.7-9.6c-3.2-4.1-4.8-9.1-4.8-15.1c0-8.1,3.6-14.6,10.8-19.7
			c7.2-5.1,16.5-7.6,27.9-7.6c5.7,0,11.3,0.6,16.9,1.7c5.6,1.1,10.4,2.5,14.4,4.2v19.9h-2.4c-3.5-2.8-7.8-5.1-12.8-7
			c-5.1-1.9-10.2-2.8-15.5-2.8c-1.9,0-3.7,0.1-5.6,0.4c-1.8,0.3-3.6,0.7-5.3,1.4c-1.5,0.6-2.8,1.5-3.9,2.7c-1.1,1.2-1.6,2.5-1.6,4
			c0,2.3,0.9,4,2.6,5.3c1.7,1.2,5,2.3,9.9,3.3c3.2,0.7,6.2,1.3,9.1,1.9c2.9,0.6,6.1,1.5,9.4,2.6c6.6,2.2,11.5,5.1,14.7,8.9
			c3.2,3.7,4.7,8.6,4.7,14.5C-4788.5-731.5-4792.1-724.6-4799.4-719.3z M-4695.7-712.8h-22.3V-751h-33v38.1h-22.3v-86.5h22.3v31.7
			h33v-31.7h22.3V-712.8z M-4581.2-799.4h37.4c5.1,0,9.5,0.3,13.2,0.9c3.7,0.6,7.1,1.8,10.3,3.8c3.3,1.9,5.8,4.4,7.8,7.5
			c1.9,3.1,2.9,6.9,2.9,11.6c0,6.4-1.5,11.6-4.4,15.6c-3,4-7.2,7.4-12.7,10.1l28.9,37.1h-27.3l-23.5-31.7h-10.3v31.7h-22.2V-799.4z
			 M-4593.6-712.8h-23l-6-17.5h-32l-6,17.5h-22.5l32-86.5h25.7L-4593.6-712.8z M-4543.2-760.7c2.4-0.4,4.4-1.2,6-2.4
			c1.6-1.2,2.7-2.5,3.4-4c0.7-1.4,1.1-3.4,1.1-5.8c0-2.2-0.4-4-1.3-5.6s-2.4-2.8-4.6-3.7c-1.5-0.6-3.3-1-5.3-1.1
			c-2-0.1-4.4-0.2-7-0.2h-8.1v23.3h6.9C-4548.6-760.1-4545.6-760.3-4543.2-760.7z M-4649.4-746.2h21.3l-10.6-31L-4649.4-746.2z
			 M-4903.2-781.5c-2.3-0.9-4.6-1.4-6.8-1.5c-2.2-0.1-5.1-0.2-8.8-0.2h-3.8v25.9h6.4c3.8,0,6.9-0.2,9.4-0.7c2.5-0.5,4.5-1.4,6.2-2.8
			c1.4-1.2,2.5-2.7,3.1-4.4c0.6-1.7,1-3.8,1-6.3c0-2.4-0.7-4.5-2-6.3C-4900-779.6-4901.5-780.8-4903.2-781.5z M-5013.2-746.2h21.3
			l-10.6-31L-5013.2-746.2z M-5002.5-777.2l-10.7,31h21.3L-5002.5-777.2z M-4898.6-777.8c-1.3-1.8-2.9-3-4.6-3.7
			c-2.3-0.9-4.6-1.4-6.8-1.5c-2.2-0.1-5.1-0.2-8.8-0.2h-3.8v25.9h6.4c3.8,0,6.9-0.2,9.4-0.7c2.5-0.5,4.5-1.4,6.2-2.8
			c1.4-1.2,2.5-2.7,3.1-4.4c0.6-1.7,1-3.8,1-6.3C-4896.7-774-4897.3-776.1-4898.6-777.8z M-4638.7-777.2l-10.6,31h21.3
			L-4638.7-777.2z M-4638.7-777.2l-10.6,31h21.3L-4638.7-777.2z M-4898.6-777.8c-1.3-1.8-2.9-3-4.6-3.7c-2.3-0.9-4.6-1.4-6.8-1.5
			c-2.2-0.1-5.1-0.2-8.8-0.2h-3.8v25.9h6.4c3.8,0,6.9-0.2,9.4-0.7c2.5-0.5,4.5-1.4,6.2-2.8c1.4-1.2,2.5-2.7,3.1-4.4
			c0.6-1.7,1-3.8,1-6.3C-4896.7-774-4897.3-776.1-4898.6-777.8z M-5002.5-777.2l-10.7,31h21.3L-5002.5-777.2z M-5002.5-777.2
			l-10.7,31h21.3L-5002.5-777.2z M-4898.6-777.8c-1.3-1.8-2.9-3-4.6-3.7c-2.3-0.9-4.6-1.4-6.8-1.5c-2.2-0.1-5.1-0.2-8.8-0.2h-3.8
			v25.9h6.4c3.8,0,6.9-0.2,9.4-0.7c2.5-0.5,4.5-1.4,6.2-2.8c1.4-1.2,2.5-2.7,3.1-4.4c0.6-1.7,1-3.8,1-6.3
			C-4896.7-774-4897.3-776.1-4898.6-777.8z M-4898.6-777.8c-1.3-1.8-2.9-3-4.6-3.7c-2.3-0.9-4.6-1.4-6.8-1.5
			c-2.2-0.1-5.1-0.2-8.8-0.2h-3.8v25.9h6.4c3.8,0,6.9-0.2,9.4-0.7c2.5-0.5,4.5-1.4,6.2-2.8c1.4-1.2,2.5-2.7,3.1-4.4
			c0.6-1.7,1-3.8,1-6.3C-4896.7-774-4897.3-776.1-4898.6-777.8z M-5002.5-777.2l-10.7,31h21.3L-5002.5-777.2z M-5002.5-777.2
			l-10.7,31h21.3L-5002.5-777.2z M-5002.5-777.2l-10.7,31h21.3L-5002.5-777.2z"/>
	</g>
</g>
</svg>
