<?xml version="1.0" encoding="utf-8"?>
<!-- Generator: Adobe Illustrator 23.0.1, SVG Export Plug-In . SVG Version: 6.00 Build 0)  -->
<svg version="1.1" id="Layer_1" xmlns="http://www.w3.org/2000/svg" xmlns:xlink="http://www.w3.org/1999/xlink" x="0px" y="0px"
	 viewBox="0 0 84 75" style="enable-background:new 0 0 84 75;" xml:space="preserve">
<style type="text/css">
	.st0{fill:#FFFFFF;}
</style>
<g>
	<path class="st0" d="M23.1,74.4c-12.4,0-22.5-10.1-22.5-22.5V23.1c0-12.4,10.1-22.5,22.5-22.5h37.8c12.4,0,22.5,10.1,22.5,22.5
		v28.8c0,12.4-10.1,22.5-22.5,22.5H23.1z"/>
	<path d="M60.9,1.2C73,1.2,82.8,11,82.8,23.1v28.8c0,12.1-9.8,21.9-21.9,21.9H23.1C11,73.8,1.2,64,1.2,51.9V23.1
		C1.2,11,11,1.2,23.1,1.2H60.9 M60.9,0H23.1C10.3,0,0,10.3,0,23.1v28.8C0,64.7,10.3,75,23.1,75h37.8C73.7,75,84,64.7,84,51.9V23.1
		C84,10.3,73.7,0,60.9,0L60.9,0z"/>
</g>
</svg>
